<svg width="435" height="28" viewBox="0 0 435 28" fill="none" xmlns="http://www.w3.org/2000/svg">
<path d="M79.2666 7.66669L76.5333 20.4H73.2L75.9333 7.66669H79.2666ZM93.1333 15.8667L94.8666 11.0667L95.8666 15.8667H93.1333ZM96.8 20.4H99.8666L97.2 7.66669H94.4C93.8 7.66669 93.2 8.06669 93 8.60002L88.0666 20.4H91.5333L92.2 18.4667H96.4L96.8 20.4ZM88.2 16.2C88.2 12.8667 83.5333 12.6667 83.6 11.1334C83.6 10.6667 84.0666 10.2 85 10.0667C86.1333 9.93336 87.2666 10.1334 88.2666 10.6667L88.8666 8.00002C87.8666 7.60002 86.8666 7.46669 85.8 7.40002C82.5333 7.40002 80.2666 9.13336 80.2 11.6C80.2 13.4667 81.8 14.4667 83.0666 15.0667C84.3333 15.6667 84.8 16.0667 84.8 16.6667C84.8 17.5334 83.8 17.9334 82.8 17.9334C81.6 17.9334 80.4666 17.6667 79.4 17.1334L78.8 19.9334C80 20.4 81.2 20.6 82.4666 20.6C85.9333 20.6 88.2 18.8667 88.2 16.2ZM74.6 7.66669L69.2666 20.4H65.8L63.2 10.2667C63.1333 9.80002 62.8666 9.33336 62.4 9.13336C61.3333 8.60002 60.2666 8.26669 59.1333 8.00002L59.2 7.60002H64.8C65.6 7.60002 66.2 8.20002 66.3333 8.93336L67.7333 16.3334L71.1333 7.66669H74.6Z" fill="#1434CB"/>
<path d="M138.8 6.59998H130.6V21.3333H138.8V6.59998Z" fill="#FF5F00"/>
<path d="M131.133 14C131.133 11.1333 132.467 8.46663 134.733 6.66663C130.667 3.46663 124.8 4.19996 121.6 8.26663C118.4 12.3333 119.133 18.2 123.2 21.4C126.6 24.0666 131.4 24.0666 134.8 21.4C132.467 19.6 131.133 16.8666 131.133 14Z" fill="#EB001B"/>
<path d="M149.867 14C149.867 19.2 145.667 23.3333 140.467 23.3333C138.401 23.3333 136.334 22.6 134.734 21.3333C138.801 18.1333 139.467 12.2 136.267 8.13332C135.801 7.53332 135.267 7.06666 134.734 6.59999C138.734 3.39999 144.667 4.06666 147.867 8.06666C149.201 9.73332 149.934 11.8667 149.867 14Z" fill="#F79E1B"/>
<path d="M149 19.8V19.4666H149.134V19.4H148.8V19.4666H148.934L149 19.8ZM149.6 19.8V19.4666H149.534L149.4 19.7333L149.267 19.4666H149.2V19.8H149.267V19.5333L149.334 19.7333H149.4L149.467 19.5333L149.6 19.8Z" fill="#F79E1B"/>
<path d="M28 13.2001H28.7333H29.4667V10.4001V7.53339H28.7333H28V10.3334V13.2001Z" fill="#2B67B0"/>
<path d="M24.9998 9.93339H23.3998V8.80005H24.9998C25.3331 8.73339 25.5998 9.00005 25.6664 9.33339V9.40005C25.6664 9.73339 25.4664 9.93339 24.9998 9.93339ZM27.1998 9.33339C27.1998 8.33339 26.3998 7.53339 25.3998 7.53339C25.3331 7.53339 25.2664 7.53339 25.1998 7.53339H21.9331V13.2001H23.4664V11.2001H23.9998L25.7331 13.2001H27.5998L25.6664 11.1334C26.5331 11.0001 27.1998 10.2667 27.1998 9.33339Z" fill="#2B67B0"/>
<path d="M31.8 10.4V10.2667C31.7333 9.53338 32.2666 8.86671 33 8.80004C33.0666 8.80004 33.1333 8.80004 33.2 8.80004H34.8666V7.46671H33.0666C31.6666 7.33338 30.4 8.40004 30.2666 9.80004C30.2666 9.93338 30.2666 10.0667 30.2666 10.2V10.3334C30.1333 11.7334 31.2 13 32.6 13.0667C32.7333 13.0667 32.8666 13.0667 33.0666 13.0667H33.6L34.2 11.8H33.3333C32.6 11.8667 31.9333 11.3334 31.8666 10.6C31.8 10.6 31.8 10.5334 31.8 10.4Z" fill="#2B67B0"/>
<path d="M3.13346 10.8001L3.93346 8.93339L4.73346 10.8001H3.13346ZM2.93346 7.53339L0.466797 13.2001H2.13346L2.60013 12.0667H5.20013L5.6668 13.2001H7.40013L4.8668 7.53339H2.93346Z" fill="#2B67B0"/>
<path d="M11.3332 11.0667L10.0665 7.53339H7.6665V13.2001H9.13317V9.13339L10.6665 13.2001H11.9998L13.4665 9.13339V13.2001H14.9998V7.53339H12.5998L11.3332 11.0667Z" fill="#2B67B0"/>
<path d="M16.1333 13.2001H20.9333V11.9334H17.6666V11.0001H20.8666V9.73339H17.6666V8.80005H20.9333V7.53339H16.1333V13.2001Z" fill="#2B67B0"/>
<path d="M36.9333 10.8001L37.7333 8.93339L38.5333 10.8001H36.9333ZM36.7333 7.53339L34.2666 13.2001H35.9333L36.3999 12.0667H38.9999L39.4666 13.2001H41.1999L38.7333 7.53339H36.7333Z" fill="#2B67B0"/>
<path d="M45.6668 11.0001L43.4001 7.53339H41.4668V13.2001H43.0001V9.60005L45.3335 13.2001H47.2001V7.53339H45.6668V11.0001Z" fill="#2B67B0"/>
<path d="M40.7333 17H39.3333C39.0667 17.0667 38.8666 16.8667 38.8 16.6C38.7333 16.3334 38.9333 16.1334 39.2 16.0667C39.2667 16.0667 39.3333 16.0667 39.3333 16.0667H41.8667L42.4666 14.8H39.3333C38.0667 14.8 37.3333 15.5334 37.3333 16.6C37.2667 17.4667 38 18.2667 38.8667 18.2667C38.9333 18.2667 39.0666 18.2667 39.1333 18.2667H40.5333C40.8 18.2 41 18.4 41.0667 18.6667C41.1333 18.9334 40.9333 19.1334 40.6667 19.2C40.6 19.2 40.5333 19.2 40.5333 19.2H37.4666V20.4667H40.5333C41.5333 20.6 42.4 19.8667 42.5333 18.8667C42.5333 18.8 42.5333 18.6667 42.5333 18.6C42.5333 17.6 41.8667 17 40.7333 17Z" fill="#2B67B0"/>
<path d="M28.867 17.2667H27.267V16.1334H28.867C29.2003 16.0667 29.467 16.3334 29.5336 16.6667V16.7334C29.6003 17 29.3336 17.2667 28.867 17.2667ZM31.067 16.6667C31.067 15.6667 30.267 14.8667 29.267 14.8667C29.2003 14.8667 29.1336 14.8667 29.067 14.8667H25.8003V20.5334H27.3336V18.5334H27.867L29.6003 20.5334H31.467L29.6003 18.4667C30.467 18.2667 31.067 17.5334 31.067 16.6667Z" fill="#2B67B0"/>
<path d="M31.8667 20.4667H36.6667V19.2H33.4V18.2667H36.6V17H33.4V16.0667H36.6667V14.8H31.8667V20.4667Z" fill="#2B67B0"/>
<path d="M22.9336 17.3334H21.3336V16.0667H22.9336C23.267 16 23.6003 16.2667 23.6003 16.6C23.667 16.9334 23.4003 17.2667 23.067 17.2667C23.067 17.3334 23.0003 17.3334 22.9336 17.3334ZM23.1336 14.8H19.8003V20.4667H21.3336V18.6H23.067C24.1336 18.6667 25.0003 17.9334 25.1336 16.9334C25.1336 16.8667 25.1336 16.8 25.1336 16.7334C25.2003 15.7334 24.4003 14.8667 23.3336 14.8C23.267 14.8 23.2003 14.8 23.1336 14.8Z" fill="#2B67B0"/>
<path d="M46.267 17H44.867C44.6003 17.0667 44.4003 16.8667 44.3337 16.6C44.267 16.3334 44.467 16.1334 44.7337 16.0667C44.8003 16.0667 44.867 16.0667 44.867 16.0667H47.4003L48.0003 14.8H44.867C43.6003 14.8 42.867 15.5334 42.867 16.6C42.8003 17.4667 43.5337 18.2667 44.4003 18.2667C44.467 18.2667 44.6003 18.2667 44.667 18.2667H46.067C46.3337 18.2 46.5337 18.4 46.6003 18.6667C46.667 18.9334 46.467 19.1334 46.2003 19.2C46.1337 19.2 46.067 19.2 46.067 19.2H43.0003V20.4667H46.067C47.067 20.6 47.9337 19.8667 48.067 18.8667C48.067 18.8 48.067 18.7334 48.067 18.6C48.067 17.6 47.4003 17 46.267 17Z" fill="#2B67B0"/>
<path d="M7.6665 20.4667H12.4665V19.2H9.19984V18.2667H12.3998V17H9.19984V16.0667H12.4665V14.8H7.6665V20.4667Z" fill="#2B67B0"/>
<path d="M19.5332 14.8H17.6665L16.1998 16.5334L14.6665 14.8H12.7332L15.1998 17.6L12.6665 20.4667H14.5998L16.1332 18.6667L17.6665 20.4667H19.6665L17.1332 17.6L19.5332 14.8Z" fill="#2B67B0"/>
<path fill-rule="evenodd" clip-rule="evenodd" d="M260.4 8.93332C259.867 8.93332 259.334 9.26666 259.134 9.73332L256.734 15.2L255.867 9.73332C255.8 9.26666 255.334 8.86665 254.867 8.93332H251.867L254.467 18C254.534 18.2 254.534 18.4 254.467 18.6C254.334 19.4 253.667 20 252.867 20H251.2C250.8 20 250.467 20.2667 250.334 20.8667L249.934 23.1333H252.934C254.867 23.0667 256.667 21.9333 257.534 20.2L263.467 8.99999L260.4 8.93332Z" fill="#323E48"/>
<path fill-rule="evenodd" clip-rule="evenodd" d="M231.133 6.26666C232 6.26666 232.467 6.6 232.267 7.53333L232 9H234.067L233.6 11.5333H231.533L231 14.6667C230.8 15.7333 231.933 15.9333 232.533 15.9333H232.867L232.333 18.8C232.133 18.8 231.867 18.8667 231.667 18.8C230.133 18.8 227.2 18.4 227.733 15.1333L228.333 11.5333H227L227.467 9H228.933L229.4 6.26666H231.133Z" fill="#323E48"/>
<path fill-rule="evenodd" clip-rule="evenodd" d="M248.333 9.06665L247.8 12.0667C248.8 12.6 249.2 13.8 248.667 14.7333C248.333 15.3333 247.8 15.7333 247.133 15.8L246.6 18.8H246.867C249.6 18.8 251.8 16.5333 251.8 13.8C251.8 11.6 250.4 9.73332 248.333 9.06665Z" fill="#00ADBB"/>
<path fill-rule="evenodd" clip-rule="evenodd" d="M246 15.6C245 15.0666 244.6 13.8666 245.133 12.9333C245.467 12.3333 246 11.9333 246.667 11.8666L247.2 8.86664H246.933C244.2 8.86664 241.933 11.1333 242 13.8666C242 16.0666 243.467 18 245.533 18.6L246 15.6Z" fill="#00ADBB"/>
<path fill-rule="evenodd" clip-rule="evenodd" d="M235.267 8.93331H237C237.867 8.93331 238.333 9.26664 238.2 10.2L238 11.2666C238.667 9.86664 240 8.9333 241.533 8.86664C241.667 8.86664 241.8 8.86664 241.933 8.86664L241.333 12.0666C241.133 12 240.867 12 240.667 12C239.467 11.9333 238.333 12.6 237.867 13.7333C237.667 14.1333 237.533 14.6 237.467 15.0666L236.8 18.6666H233.533L235.267 8.93331Z" fill="#323E48"/>
<path fill-rule="evenodd" clip-rule="evenodd" d="M262.667 18.9333C262.667 18.8666 262.667 18.8 262.6 18.8C262.533 18.7333 262.533 18.7333 262.467 18.7333H262.267V19.1333H262.467C262.533 19.1333 262.6 19.1333 262.6 19.0666C262.667 19.0666 262.667 19 262.667 18.9333ZM262.867 19.7333H262.667L262.4 19.2666H262.2V19.7333H262.067V18.6H262.467C262.533 18.6 262.667 18.6666 262.733 18.6666C262.8 18.7333 262.867 18.8 262.867 18.9333C262.867 19.0666 262.8 19.2 262.6 19.2666L262.867 19.7333ZM263.333 19.2C263.333 19.4666 263.267 19.6666 263.067 19.8666C262.933 20.0666 262.667 20.1333 262.467 20.1333C262.2 20.1333 262 20.0666 261.867 19.8666C261.533 19.5333 261.533 18.9333 261.867 18.6C262 18.4 262.267 18.3333 262.467 18.3333C262.733 18.3333 262.933 18.4 263.067 18.6C263.2 18.7333 263.333 18.9333 263.333 19.2ZM263.467 19.2C263.467 19.4666 263.333 19.7333 263.133 19.9333C262.933 20.1333 262.667 20.2666 262.4 20.2666C262.133 20.2666 261.867 20.1333 261.667 19.9333C261.267 19.5333 261.267 18.8666 261.667 18.4666C261.867 18.2666 262.133 18.1333 262.4 18.1333C262.667 18.1333 262.933 18.2666 263.133 18.4666C263.333 18.6666 263.467 18.9333 263.467 19.2Z" fill="#323E48"/>
<path d="M311.733 6.13335L299.8 0.200012L287.933 6.13335C286.2 24.5333 299.867 27.7333 299.867 27.7333C299.867 27.7333 313.467 24.6 311.733 6.13335Z" fill="#D0D2D3"/>
<path d="M310.2 7.2L299.8 2L289.4 7.2C287.867 23.2 299.8 26 299.8 26C299.8 26 311.734 23.2 310.2 7.2Z" fill="#E6E6E6"/>
<path d="M299.733 26C299.733 26 287.8 23.2 289.333 7.13333L299.733 2V26Z" fill="#F2F2F2"/>
<path d="M298.6 8.99999C298.6 9.59999 298.4 10.1333 298 10.6C297.534 11.0667 297 11.4 296.334 11.6V11.6667C298 11.8667 298.867 12.6667 298.867 14C298.867 14.8667 298.467 15.7333 297.8 16.2C296.867 16.8 295.8 17.0667 294.734 17C294.2 17 293.734 16.9333 293.267 16.8667C292.734 16.8 292.267 16.6667 291.8 16.4667V14.2C292.2 14.4 292.667 14.6 293.134 14.7333C293.534 14.8667 293.934 14.8667 294.4 14.8667C294.867 14.8667 295.267 14.8 295.734 14.6C296 14.4667 296.134 14.1333 296.134 13.8C296.134 13.6 296.067 13.3333 295.934 13.1333C295.734 12.9333 295.534 12.8667 295.267 12.8C294.867 12.7333 294.467 12.6667 294.067 12.6667H293.4V10.6667H294.067C295.467 10.6667 296.134 10.3333 296.134 9.59999C296.134 9.33333 296 9.13333 295.8 8.99999C295.534 8.86666 295.267 8.79999 295 8.79999C294.267 8.79999 293.6 9.06666 293 9.46666L291.867 7.66666C292.334 7.33333 292.934 7.06666 293.467 6.86666C294.067 6.66666 294.734 6.59999 295.4 6.59999C296.267 6.53333 297.134 6.79999 297.8 7.19999C298.267 7.66666 298.6 8.33333 298.6 8.99999Z" fill="#474747"/>
<path d="M309 11.6C309.067 13 308.6 14.4 307.6 15.4667C306.533 16.4 305.133 16.8667 303.733 16.8H300.467V6.79999H303.933C305.267 6.73332 306.6 7.13332 307.667 7.99999C308.6 8.99999 309.133 10.2667 309 11.6ZM306.2 11.7333C306.267 11 306.067 10.2667 305.667 9.66666C305.267 9.19999 304.667 8.93332 304 8.99999H303.2V14.6H303.8C304.467 14.6667 305.133 14.4 305.6 13.8667C306.067 13.2667 306.267 12.4667 306.2 11.7333Z" fill="#474747"/>
<path d="M289.8 23.0667C289.8 23.4 289.734 23.7333 289.534 24C289.334 24.2667 289.067 24.5333 288.734 24.6667C288.334 24.8 287.934 24.9333 287.534 24.8667C287.2 24.8667 286.867 24.8667 286.6 24.8C286.334 24.7333 286.067 24.6667 285.8 24.5333V23.1333C286.067 23.2667 286.4 23.4 286.734 23.4667C287 23.5333 287.334 23.6 287.6 23.6C287.8 23.6 287.934 23.6 288.134 23.4667C288.334 23.3333 288.334 23.1333 288.2 22.9333C288.134 22.8667 288.067 22.8 288 22.7333C287.934 22.6667 287.667 22.5333 287.267 22.4C286.934 22.2667 286.667 22.1333 286.4 21.9333C286.2 21.8 286.067 21.6 286 21.4C285.934 21.2 285.867 20.9333 285.867 20.6667C285.867 20.2 286.067 19.7333 286.467 19.4667C286.934 19.1333 287.467 19 288.067 19C288.667 19 289.334 19.1333 289.867 19.4L289.4 20.6C289 20.4 288.467 20.2667 288 20.2C287.867 20.2 287.667 20.2 287.534 20.3333C287.467 20.4 287.4 20.4667 287.4 20.6C287.4 20.7333 287.467 20.8667 287.6 20.9333C287.867 21.1333 288.2 21.2667 288.534 21.4C288.934 21.5333 289.267 21.8 289.534 22.1333C289.734 22.4 289.8 22.7333 289.8 23.0667Z" fill="#474747"/>
<path d="M294.067 24.8H290.667V19.0667H294.067V20.3333H292.2V21.2H293.933V22.4667H292.2V23.5333H294.067V24.8Z" fill="#474747"/>
<path d="M297.6 20.3334C297.267 20.3334 296.934 20.4667 296.734 20.8C296.534 21.2 296.4 21.6 296.4 22.0667C296.4 23.2 296.8 23.7333 297.667 23.7333C297.934 23.7333 298.134 23.6667 298.4 23.6C298.667 23.5334 298.867 23.4667 299.134 23.3334V24.6667C298.6 24.8667 298.067 25 297.534 25C296.8 25.0667 296.067 24.8 295.534 24.2667C295.067 23.6667 294.8 22.8667 294.867 22.1334C294.867 21.6 295 21.0667 295.2 20.6C295.4 20.1334 295.734 19.8 296.134 19.6C296.6 19.3334 297.067 19.2 297.6 19.2667C298.2 19.2667 298.8 19.4 299.334 19.6667L298.867 20.8667C298.667 20.8 298.467 20.6667 298.2 20.6C298.067 20.3334 297.867 20.3334 297.6 20.3334Z" fill="#474747"/>
<path d="M305.133 19.1334V22.6C305.2 23.2667 304.933 23.8667 304.466 24.3334C303.4 25.1334 301.933 25.1334 300.866 24.3334C300.4 23.8667 300.2 23.2667 300.266 22.6V19.1334H301.8V22.4667C301.8 22.8 301.866 23.0667 302 23.3334C302.4 23.6667 302.933 23.6667 303.333 23.3334C303.466 23.0667 303.6 22.7334 303.533 22.4667V19.1334H305.133Z" fill="#474747"/>
<path d="M307.867 22.7333V24.8H306.333V19.0667H308.2C309.733 19.0667 310.533 19.6 310.533 20.7333C310.533 21.4 310.133 22 309.533 22.2667L311.2 24.7333H309.467L308.267 22.6667L307.867 22.7333ZM307.867 21.6H308.134C308.667 21.6 308.933 21.4 308.933 20.8666C308.933 20.3333 308.667 20.2667 308.134 20.2667H307.8L307.867 21.6Z" fill="#474747"/>
<path d="M315.133 24.8H311.733V19.0667H315.133V20.3333H313.266V21.2H315V22.4667H313.266V23.5333H315.133V24.8Z" fill="#474747"/>
<path d="M427.267 5.06665H355.267V23.2667H427.267C431.467 23.2667 434.934 19.8667 434.934 15.6V12.6667C434.867 8.46665 431.467 5.06665 427.267 5.06665Z" fill="#00ADBB"/>
<path d="M371.067 17.8C370.601 17.9334 370.134 18 369.667 17.9334C369.134 17.9334 368.667 17.8667 368.201 17.6667C367.734 17.4667 367.334 17.2667 367.001 16.9334C366.667 16.6 366.401 16.2 366.267 15.8C365.867 14.8 365.867 13.7334 366.267 12.8C366.467 12.3334 366.667 11.9334 367.067 11.6667C367.401 11.3334 367.801 11.0667 368.201 10.9334C368.667 10.7334 369.134 10.6667 369.601 10.6667C370.134 10.6667 370.601 10.7334 371.067 10.9334C371.467 11.0667 371.867 11.3334 372.201 11.6L371.201 12.8C371.001 12.6 370.801 12.4667 370.601 12.3334C370.334 12.2 370.001 12.1334 369.734 12.1334C369.467 12.1334 369.201 12.2 368.934 12.2667C368.667 12.4 368.467 12.5334 368.334 12.7334C368.134 12.9334 368.001 13.1334 367.934 13.4C367.801 13.6667 367.801 14 367.801 14.2667C367.801 14.6 367.867 14.8667 367.934 15.1334C368.001 15.4 368.134 15.6 368.334 15.8667C368.534 16.0667 368.734 16.2 369.001 16.3334C369.267 16.4667 369.601 16.4667 369.867 16.4667C370.067 16.4667 370.201 16.4667 370.401 16.4C370.534 16.4 370.734 16.3334 370.867 16.2667V15H369.601V13.6667H372.334V17.3334C371.867 17.5334 371.467 17.6667 371.067 17.8Z" fill="white"/>
<path d="M379.2 15.1333C379.2 15.5333 379.134 15.9333 379 16.2667C378.867 16.6 378.667 16.9333 378.4 17.1333C378.134 17.4 377.8 17.6 377.467 17.7333C377.067 17.8667 376.667 17.9333 376.267 17.9333C375.867 17.9333 375.467 17.8667 375.067 17.7333C374.734 17.6 374.4 17.4 374.134 17.1333C373.867 16.8667 373.667 16.6 373.6 16.2667C373.467 15.8667 373.4 15.5333 373.4 15.1333V10.7333H375V14.9333C375 15.1333 375 15.2667 375.067 15.4667C375.134 15.6 375.2 15.8 375.267 15.9333C375.4 16.0667 375.534 16.2 375.667 16.2667C376.067 16.4 376.467 16.4 376.867 16.2667C377 16.2 377.134 16.0667 377.267 15.9333C377.334 15.8 377.467 15.6667 377.467 15.4667C377.534 15.2667 377.534 15.1333 377.534 14.9333V10.6667H379.134L379.2 15.1333ZM376.134 9.33334C376.134 9.53334 376.067 9.73334 375.934 9.93334C375.8 10.0667 375.6 10.1333 375.4 10.2C375.2 10.2 375 10.1333 374.867 9.93334C374.734 9.80001 374.667 9.60001 374.667 9.33334C374.667 9.20001 374.667 9.13334 374.734 9.00001C374.8 8.93334 374.8 8.80001 374.867 8.73334C374.934 8.66668 375 8.60001 375.134 8.53334C375.2 8.46668 375.334 8.46667 375.467 8.46667C375.667 8.46667 375.867 8.53334 376 8.73334C376 8.93334 376.134 9.13334 376.134 9.33334ZM378.2 9.33334C378.2 9.53334 378.134 9.73334 378 9.93334C377.867 10.0667 377.667 10.2 377.467 10.2C377.267 10.2 377.067 10.1333 376.934 9.93334C376.8 9.80001 376.734 9.60001 376.734 9.33334C376.734 9.20001 376.734 9.13334 376.8 9.00001C376.867 8.93334 376.867 8.80001 376.934 8.73334C377 8.66668 377.067 8.60001 377.2 8.53334C377.334 8.46668 377.4 8.46667 377.534 8.46667C377.734 8.46667 377.934 8.53334 378.067 8.73334C378.067 8.93334 378.2 9.13334 378.2 9.33334Z" fill="white"/>
<path d="M383.8 17.7334H382.2L379.667 10.7334H381.467L383 15.6667L384.533 10.6667H386.333L383.8 17.7334Z" fill="white"/>
<path d="M386.934 17.7333V10.7333H391.4V12.1333H388.467V13.4667H391.267V14.8H388.467V16.2667H391.6V17.7333H386.934Z" fill="white"/>
<path d="M396.934 17.7333L394.267 13.1333V17.7333H392.734V10.7333H394.601L397.267 15.3333L397.201 10.7333H398.734V17.7333H396.934Z" fill="white"/>
<path d="M400.134 17.7333V10.7333H401.734V16.2667H404.334V17.7333H400.134Z" fill="white"/>
<path d="M406.733 9.33334C406.733 9.8 406.4 10.1333 405.933 10.2H405.867C405.667 10.2 405.4 10.1333 405.267 9.93334C405.133 9.8 405 9.6 405 9.33334C405 9.13334 405.067 8.86667 405.2 8.73334C405.533 8.4 406.067 8.4 406.4 8.73334C406.6 8.86667 406.733 9.13334 406.733 9.33334ZM405.067 17.7333V10.7333H406.667V17.7333H405.067Z" fill="white"/>
<path d="M417.4 14.2C417.4 14.7333 417.334 15.2667 417.134 15.7333C416.934 16.2 416.667 16.6 416.334 16.9333C416 17.2667 415.6 17.5333 415.2 17.6667C414.734 17.8667 414.267 17.9333 413.734 17.9333C413.267 17.9333 412.734 17.8667 412.267 17.6667C411.867 17.4667 411.467 17.2 411.134 16.9333C410.8 16.6 410.534 16.2 410.4 15.7333C410.067 14.7333 410.067 13.6667 410.4 12.6667C410.6 12.2667 410.8 11.8667 411.134 11.5333C411.467 11.2 411.867 10.9333 412.334 10.8C412.8 10.6 413.267 10.5333 413.8 10.5333C414.267 10.5333 414.8 10.6 415.267 10.8C415.667 11 416.067 11.2 416.4 11.5333C416.734 11.8667 417 12.2667 417.2 12.6667C417.267 13.1333 417.4 13.6667 417.4 14.2ZM415.667 14.2C415.667 13.9333 415.6 13.6 415.534 13.3333C415.467 13.0667 415.334 12.8667 415.134 12.6667C414.934 12.4667 414.734 12.3333 414.534 12.2C414.267 12.0667 414 12.0667 413.734 12.0667C413.467 12.0667 413.2 12.1333 412.934 12.2C412.734 12.3333 412.467 12.4667 412.334 12.6667C412.134 12.8667 412 13.0667 411.934 13.3333C411.734 13.8667 411.734 14.5333 411.934 15.0667C412 15.3333 412.134 15.5333 412.334 15.7333C412.534 15.9333 412.734 16.0667 412.934 16.2C413.2 16.3333 413.467 16.3333 413.734 16.3333C414 16.3333 414.267 16.2667 414.534 16.2C414.734 16.0667 415 15.9333 415.134 15.7333C415.334 15.5333 415.467 15.3333 415.534 15.0667C415.6 14.8 415.667 14.5333 415.667 14.2ZM413.534 9.33334C413.534 9.53334 413.467 9.73334 413.334 9.93334C413.067 10.2667 412.534 10.2667 412.267 9.93334C412.134 9.80001 412 9.53334 412 9.33334C412 9.20001 412 9.13334 412.067 9.00001C412.134 8.93334 412.134 8.80001 412.2 8.73334C412.267 8.66668 412.334 8.60001 412.467 8.53334C412.534 8.46668 412.667 8.46667 412.8 8.46667C413 8.46667 413.2 8.53334 413.334 8.73334C413.4 8.93334 413.534 9.13334 413.534 9.33334ZM415.6 9.33334C415.6 9.53334 415.534 9.73334 415.334 9.93334C415.2 10.0667 415 10.2 414.8 10.2C414.6 10.2 414.4 10.1333 414.267 9.93334C414.134 9.80001 414.067 9.60001 414.067 9.33334C414.067 9.20001 414.067 9.13334 414.134 9.00001C414.2 8.93334 414.2 8.80001 414.267 8.73334C414.334 8.66668 414.4 8.60001 414.534 8.53334C414.667 8.46668 414.734 8.46667 414.867 8.46667C415.067 8.46667 415.267 8.53334 415.4 8.73334C415.467 8.93334 415.6 9.13334 415.6 9.33334Z" fill="white"/>
<path d="M424.667 14.2667C424.667 14.8 424.601 15.3333 424.334 15.8667C424.134 16.2667 423.867 16.6667 423.467 17C423.134 17.3333 422.667 17.5333 422.267 17.6667C421.867 17.8 421.401 17.8667 420.934 17.8667H418.467V10.7333H420.867C421.334 10.7333 421.801 10.8 422.267 10.8667C422.734 11 423.134 11.2 423.467 11.4667C423.801 11.7333 424.134 12.1333 424.267 12.5333C424.534 13.0667 424.667 13.6667 424.667 14.2667ZM423.001 14.2667C423.001 13.9333 422.934 13.6 422.801 13.2667C422.667 13 422.534 12.8 422.334 12.6667C422.134 12.5333 421.934 12.4 421.667 12.3333C421.401 12.2667 421.134 12.2667 420.867 12.2667H420.067V16.3333H420.867C421.134 16.3333 421.401 16.3333 421.734 16.2667C422.001 16.2 422.201 16.0667 422.401 15.9333C422.601 15.7333 422.801 15.5333 422.867 15.2667C422.934 14.8667 423.001 14.5333 423.001 14.2667Z" fill="white"/>
<path d="M425.734 17.7333V10.7333H430.201V12.1333H427.267V13.4667H430.067V14.8H427.267V16.2667H430.401V17.7333H425.734Z" fill="white"/>
<path d="M364.667 12.2667C363.667 7.33336 358.867 4.20003 353.934 5.20003C349 6.20003 345.867 11 346.867 15.9334C347.867 20.8667 352.667 24 357.6 23C361.8 22.1334 364.867 18.4 364.867 14.1334C364.867 13.5334 364.8 12.8667 364.667 12.2667Z" fill="white"/>
<path d="M360.867 14.1333C360.867 11.3333 358.601 9.06665 355.801 9.06665C353.001 9.06665 350.734 11.3333 350.734 14.1333C350.734 16.9333 353.001 19.2 355.801 19.2C358.601 19.2 360.867 16.9333 360.867 14.1333Z" fill="#00ADBB"/>
<path d="M338.534 16V12.6H347.667C347.734 13.0667 347.8 13.5333 347.8 14C347.934 19 344 23.1333 339 23.2667C338.867 23.2667 338.734 23.2667 338.667 23.2667C333.534 23.2667 329.4 19.1333 329.4 14C329.4 8.86667 333.534 4.73334 338.667 4.73334C341.534 4.73334 344.267 6.06667 346 8.4L342.867 10.8C341.934 9.4 340.334 8.53334 338.667 8.46667C335.867 8.46667 333.534 11 333.534 14C333.467 16.9333 335.734 19.4 338.734 19.4667C341.8 19.4667 343.2 17.6667 343.534 16H338.534Z" fill="#00ADBB"/>
<path d="M180.466 3.53333H188.733C189.866 3.53333 190.6 4.46666 190.333 5.59999L186.466 22.1333C186.2 23.2667 185.066 24.2 183.866 24.2H175.6C174.466 24.2 173.733 23.2667 174 22.1333L177.866 5.59999C178.133 4.53332 179.266 3.53333 180.466 3.53333Z" fill="#CE0E2D"/>
<path d="M188 3.53333H197.466C198.6 3.53333 198.133 4.46666 197.8 5.59999L193.933 22.1333C193.666 23.2667 193.733 24.2 192.6 24.2H183.133C182 24.2 181.266 23.2667 181.533 22.1333L185.4 5.59999C185.733 4.53332 186.866 3.53333 188 3.53333Z" fill="#002856"/>
<path d="M197.133 3.53333H205.4C206.533 3.53333 207.266 4.46666 207 5.59999L203.133 22.1333C202.866 23.2667 201.733 24.2 200.533 24.2H192.333C191.2 24.2 190.466 23.2667 190.733 22.1333L194.6 5.59999C194.866 4.53332 196 3.53333 197.133 3.53333Z" fill="#007078"/>
<path fill-rule="evenodd" clip-rule="evenodd" d="M195.8 19.0667H196.6L196.8 18.3333H196L195.8 19.0667ZM196.4 17.0667L196.133 17.9333C196.133 17.9333 196.4 17.8 196.6 17.7333C196.733 17.6667 197 17.6667 197 17.6667L197.2 17.0667H196.4ZM196.8 15.7333L196.533 16.6C196.533 16.6 196.8 16.4667 197 16.4C197.133 16.3333 197.4 16.3333 197.4 16.3333L197.6 15.7333H196.8ZM198.533 15.7333L197.533 19.0667H197.8L197.6 19.7333H197.333L197.266 19.9333H196.333L196.4 19.7333H194.466L194.666 19.0667H194.866L195.866 15.6667L196.066 15H197.066L196.933 15.3333C196.933 15.3333 197.2 15.1333 197.466 15.0667C197.733 15 199.133 15 199.133 15L198.933 15.6667H198.533V15.7333Z" fill="white"/>
<path d="M198.934 15.0667H200V15.4667C200 15.5333 200.067 15.5333 200.2 15.5333H200.4L200.2 16.2H199.667C199.2 16.2666 199 16 199 15.8L198.934 15.0667Z" fill="white"/>
<path d="M199.067 18.1333H198.067L198.267 17.5333H199.4L199.533 17H198.4L198.6 16.3333H201.733L201.533 17H200.467L200.333 17.5333H201.4L201.2 18.1333H200.067L199.867 18.4H200.333L200.467 19.1333C200.467 19.2 200.467 19.2666 200.533 19.2666C200.533 19.2666 200.667 19.3333 200.8 19.3333H200.933L200.733 20.0666H200.4C200.333 20.0666 200.267 20.0666 200.133 20.0666C200 20.0666 199.933 20 199.867 19.9333C199.8 19.9333 199.733 19.8 199.667 19.6666L199.533 18.9333L199 19.6666C198.867 19.8666 198.6 20.0666 198.267 20.0666H197.533L197.733 19.4666H198C198.067 19.4666 198.133 19.4666 198.2 19.4C198.267 19.4 198.333 19.3333 198.333 19.2666L199.067 18.1333Z" fill="white"/>
<path d="M188.2 16.5333H190.8L190.6 17.1333H189.533L189.4 17.6667H190.467L190.267 18.3333H189.2L188.933 19.2C188.933 19.2667 189.2 19.3333 189.267 19.3333L189.8 19.2667L189.6 20H188.4C188.333 20 188.2 20 188.133 19.9333C188 19.9333 188 19.8667 187.933 19.8C187.867 19.7333 187.8 19.6667 187.867 19.5333L188.2 18.4H187.6L187.8 17.7333H188.4L188.533 17.2H187.933L188.2 16.5333Z" fill="white"/>
<path d="M189.933 15.4H191L190.8 16.0667H189.333L189.2 16.2C189.133 16.2666 189.133 16.2666 189 16.2666C188.933 16.3333 188.733 16.4 188.533 16.4H188.066L188.266 15.8H188.4C188.533 15.8 188.6 15.8 188.666 15.7333C188.733 15.7333 188.733 15.6666 188.8 15.5333L189.066 15.0667H190.133L189.933 15.4Z" fill="white"/>
<path fill-rule="evenodd" clip-rule="evenodd" d="M192 16.5333C192 16.5333 192.267 16.2666 192.8 16.2C192.933 16.2 193.6 16.2 193.6 16.2L193.733 15.8666H192.2L192 16.5333ZM193.467 16.8H191.933L191.867 17.1333H193.2C193.333 17.1333 193.4 17.1333 193.4 17.1333L193.467 16.8ZM191.467 15.0667H192.4L192.267 15.5333C192.267 15.5333 192.533 15.3333 192.733 15.2C192.933 15.1333 193.4 15.0667 193.4 15.0667H194.867L194.333 16.7333C194.267 17 194.133 17.2 194.067 17.2666C194 17.3333 193.933 17.4 193.8 17.4667C193.667 17.5333 193.533 17.6 193.467 17.6C193.4 17.6 193.2 17.6 193 17.6H191.667L191.267 18.9333C191.2 19.0666 191.2 19.1333 191.267 19.1333C191.267 19.1333 191.333 19.2 191.4 19.2L192 19.1333L191.8 19.8666H191.067C190.867 19.8666 190.667 19.8666 190.533 19.8666C190.4 19.8666 190.333 19.8667 190.267 19.8C190.2 19.7333 190.133 19.6667 190.133 19.6C190.133 19.5333 190.2 19.4 190.2 19.2667L191.467 15.0667Z" fill="white"/>
<path d="M194.2 17.8L194.133 18.2C194.066 18.3333 194.066 18.4 194 18.5333C193.933 18.6 193.8 18.7333 193.533 18.7333H193V19.2C193 19.3333 193 19.3333 193.066 19.3333C193.066 19.3333 193.133 19.3333 193.133 19.4H193.266H193.733L193.533 20.0667H193C192.6 20.0667 192.333 20.0667 192.2 20C192.133 19.9333 192.066 19.8667 192.066 19.7333L192.133 17.9333H193V18.2667H193.2C193.266 18.2667 193.333 18.2667 193.333 18.2667L193.4 18.2L193.466 17.9333H194.2V17.8Z" fill="white"/>
<path d="M181.4 8.86665C181.4 8.99999 180.8 11.6667 180.8 11.6667C180.667 12.2 180.6 12.6 180.267 12.8C180.067 12.9333 179.867 13 179.667 13C179.267 13 179.067 12.8 179 12.4667V12.3333L179.133 11.6C179.133 11.6 179.733 9.19999 179.867 8.86665C179.867 8.86665 179.867 8.86665 179.867 8.79999C178.667 8.79999 178.467 8.79999 178.467 8.79999L178.4 8.99999L177.8 11.7333L177.733 11.9333L177.6 12.6667C177.6 12.8667 177.667 13.0667 177.733 13.2C178 13.6667 178.8 13.7333 179.267 13.7333C179.867 13.7333 180.4 13.6 180.733 13.4C181.4 13 181.533 12.4 181.667 11.9333L181.733 11.6667C181.733 11.6667 182.333 9.13332 182.467 8.86665C182.467 8.86665 182.467 8.86665 182.467 8.79999C181.733 8.86665 181.533 8.86665 181.4 8.86665Z" fill="white"/>
<path d="M184.867 13.8C184.467 13.8 184.333 13.8 183.8 13.8V13.7333C183.867 13.5333 183.867 13.3333 183.933 13.2L184 12.9333C184.067 12.5333 184.2 12.0667 184.2 11.9333C184.2 11.8667 184.267 11.6667 184 11.6667C183.867 11.6667 183.8 11.7333 183.667 11.7333C183.6 11.9333 183.467 12.5333 183.467 12.8C183.333 13.3333 183.333 13.4 183.267 13.7333L183.2 13.8C182.8 13.8 182.6 13.8 182.133 13.8V13.7333C182.2 13.4 182.267 13.0667 182.4 12.7333C182.6 11.8 182.667 11.4667 182.733 11H182.8C183.267 10.9333 183.4 10.9333 183.933 10.8L184 10.8667L183.933 11.1333C184 11.0667 184.133 11 184.2 11C184.467 10.8667 184.733 10.8667 184.867 10.8667C185.067 10.8667 185.333 10.9333 185.467 11.2C185.533 11.4667 185.533 11.7333 185.4 12.2667L185.333 12.5333C185 13.2 185 13.3333 184.867 13.8Z" fill="white"/>
<path d="M186.533 13.8C186.267 13.8 186.133 13.8 185.933 13.8C185.8 13.8 185.6 13.8 185.4 13.8C185.467 13.5333 185.467 13.4667 185.533 13.4C185.533 13.3333 185.6 13.2 185.667 13C185.733 12.6667 185.8 12.4667 185.8 12.2667C185.867 12.0667 185.867 11.9333 185.867 11.7333C186.133 11.6667 186.267 11.6667 186.467 11.6667C186.6 11.6667 186.8 11.6 187.067 11.5333C187 11.7333 187 11.9333 186.933 12.1333C186.867 12.3333 186.867 12.5333 186.8 12.7333C186.733 13.1333 186.667 13.3333 186.667 13.4C186.6 13.4667 186.6 13.5333 186.533 13.8Z" fill="white"/>
<path d="M189.2 12.3333C189.2 12.4667 189.067 12.8667 188.933 13C188.867 13.1333 188.733 13.2 188.6 13.2C188.533 13.2 188.333 13.2 188.333 12.8667C188.333 12.7333 188.333 12.5334 188.4 12.4C188.533 11.9334 188.667 11.5333 189 11.5333C189.267 11.5333 189.333 11.8667 189.2 12.3333ZM190.267 12.4C190.4 11.7334 190.333 11.4667 190.133 11.2667C189.933 11 189.533 10.9333 189.133 10.9333C188.867 10.9333 188.333 10.9334 187.867 11.4C187.533 11.6667 187.4 12.0667 187.333 12.4667C187.267 12.8667 187.133 13.5334 187.8 13.8C188 13.8667 188.267 13.9333 188.467 13.9333C188.933 13.9333 189.4 13.8 189.8 13.4C190.133 13.0667 190.2 12.6 190.267 12.4Z" fill="white"/>
<path d="M200.467 13.8666C199.934 13.8666 199.8 13.8666 199.333 13.8666V13.8C199.467 13.3333 199.6 12.8666 199.667 12.3333C199.8 11.7333 199.867 11.4666 199.867 11.0666H199.933C200.4 11 200.6 11 201.067 10.8666V10.9333C201 11.3333 200.867 11.7333 200.8 12.1333C200.6 13 200.534 13.4 200.467 13.8666Z" fill="white"/>
<path d="M199.666 12.4C199.666 12.5333 199.533 12.9333 199.4 13.0667C199.333 13.2 199.133 13.2667 199 13.2667C199 13.2667 198.733 13.2667 198.733 12.9333C198.733 12.8 198.733 12.6 198.8 12.4667C198.933 12 199.066 11.6 199.4 11.6C199.666 11.6 199.8 11.9333 199.666 12.4ZM200.666 12.4667C200.8 11.8 200.2 12.4 200.133 12.2C200 11.8667 200.066 11.2 199.533 11C199.333 10.9333 198.8 11 198.333 11.4C198 11.6667 197.866 12.0667 197.8 12.4667C197.733 12.8667 197.6 13.5333 198.266 13.8C198.466 13.8667 198.666 13.9333 198.866 13.9333C199.533 13.8667 200 12.9333 200.4 12.5333C200.6 12.2 200.6 12.6 200.666 12.4667Z" fill="white"/>
<path d="M193.134 13.8C192.734 13.8 192.6 13.8 192.067 13.8V13.7333C192.134 13.5333 192.133 13.3333 192.2 13.2L192.267 12.9333C192.333 12.5333 192.467 12.0667 192.467 11.9333C192.467 11.8667 192.533 11.6667 192.267 11.6667C192.133 11.6667 192.067 11.7333 191.933 11.7333C191.867 11.9333 191.733 12.5333 191.667 12.8C191.533 13.3333 191.534 13.4 191.467 13.7333L191.4 13.8C191 13.8 190.8 13.8 190.333 13.8V13.7333C190.4 13.4 190.467 13.0667 190.6 12.7333C190.8 11.8 190.867 11.4667 190.933 11H191C191.467 10.9333 191.6 10.9333 192.134 10.8L192.2 10.8667L192.134 11.1333C192.2 11.0667 192.334 11 192.4 11C192.667 10.8667 192.934 10.8667 193.067 10.8667C193.267 10.8667 193.533 10.9333 193.667 11.2C193.733 11.4667 193.667 11.7333 193.6 12.2667L193.533 12.5333C193.267 13.2 193.267 13.3333 193.134 13.8Z" fill="white"/>
<path d="M196.733 8.86664H196.399C195.533 8.86664 195.133 8.86664 194.999 8.86664C194.999 8.9333 194.933 9.06664 194.933 9.06664L194.599 10.5333C194.599 10.5333 193.799 13.7333 193.799 13.8666C194.599 13.8666 194.933 13.8666 195.066 13.8666C195.066 13.7333 195.266 12.8 195.266 12.8L195.399 12.1333L195.466 12.0666H195.533C196.199 12.0666 196.999 12.0666 197.599 11.6C197.999 11.2666 198.266 10.8666 198.399 10.3333C198.399 10.2 198.466 10.0666 198.466 9.86664C198.466 9.66664 198.399 9.46664 198.333 9.26664C197.999 8.86664 197.399 8.86664 196.733 8.86664ZM197.133 10.4C197.066 10.7333 196.866 11 196.599 11.1333C196.399 11.2666 196.066 11.2666 195.799 11.2666H195.599V11.2L195.933 9.73331V9.66664V9.59997H196.066L196.799 9.66664C197.133 9.73331 197.266 9.99997 197.133 10.4Z" fill="white"/>
<path d="M204.533 10.9333C204 11 203.866 11 203.4 11.0666L203.333 11.1333C203 11.9333 203 11.8 202.733 12.4V12.3333L202.666 10.9333L202.6 10.8666C202.066 11 202.066 11 201.533 11.0666L201.466 11.1333V11.2C201.533 11.5333 201.533 11.4666 201.6 11.9333C201.6 12.2 201.666 12.4 201.666 12.6666C201.733 13.0666 201.733 13.2666 201.8 13.8666C201.466 14.4 201.4 14.6 201.066 15.1333V15.2C201.533 15.2 201.666 15.2 202 15.2L202.066 15.1333C202.466 14.4666 204.533 10.9333 204.533 10.9333Z" fill="white"/>
<path d="M187 11.2667C187.267 11.0667 187.333 10.8 187.067 10.6667C186.8 10.5333 186.4 10.6 186.133 10.7333C185.867 10.9333 185.8 11.2 186.067 11.3333C186.333 11.4667 186.733 11.4667 187 11.2667Z" fill="white"/>
<path d="M202.134 15.0667L201.734 15.7333C201.6 16 201.4 16.1333 201 16.1333H200.333L200.533 15.5333H200.667C200.733 15.5333 200.8 15.5333 200.8 15.5333L200.867 15.4667L201.134 15.0667H202.134Z" fill="white"/>
</svg>
