<svg width="120" height="120" viewBox="0 0 120 120" fill="none" xmlns="http://www.w3.org/2000/svg">
<g filter="url(#filter0_d_1_5926)">
<rect x="24" y="18" width="72" height="72" rx="24" fill="#FE3E3E"/>
</g>
<path fill-rule="evenodd" clip-rule="evenodd" d="M60.1001 36.0621C63.9338 36.0621 66.945 36.0621 69.296 36.3782C71.7051 36.7021 73.6166 37.3794 75.1184 38.8812C76.6203 40.3831 77.2976 42.2945 77.6215 44.7037C77.9375 47.0546 77.9375 50.0658 77.9375 53.8995V53.8995V53.8996V53.8996V54.0997V54.0997V54.0998V54.0998C77.9375 57.9335 77.9375 60.9446 77.6215 63.2956C77.2976 65.7047 76.6203 67.6162 75.1184 69.118C73.6166 70.6199 71.7051 71.2972 69.296 71.6211C66.945 71.9372 63.9338 71.9372 60.1002 71.9371H60.1001H60.1001H60.1H59.9H59.8999H59.8999H59.8998C56.0662 71.9372 53.055 71.9372 50.704 71.6211C48.2949 71.2972 46.3834 70.6199 44.8816 69.118C43.3798 67.6162 42.7024 65.7047 42.3785 63.2956C42.0625 60.9446 42.0625 57.9334 42.0625 54.0997V53.8996C42.0625 50.0658 42.0625 47.0547 42.3785 44.7037C42.7024 42.2945 43.3798 40.3831 44.8816 38.8812C46.3834 37.3794 48.2949 36.7021 50.704 36.3782C53.055 36.0621 56.0662 36.0621 59.8999 36.0621H60.1001ZM58.25 61.8746C58.25 60.9081 59.03 60.1246 59.9922 60.1246H60.0078C60.97 60.1246 61.75 60.9081 61.75 61.8746C61.75 62.8411 60.97 63.6246 60.0078 63.6246H59.9922C59.03 63.6246 58.25 62.8411 58.25 61.8746ZM58.2502 54.8746C58.2502 55.8411 59.0337 56.6246 60.0002 56.6246C60.9667 56.6246 61.7502 55.8411 61.7502 54.8746V47.8746C61.7502 46.9081 60.9667 46.1246 60.0002 46.1246C59.0337 46.1246 58.2502 46.9081 58.2502 47.8746L58.2502 54.8746Z" fill="white"/>
<defs>
<filter id="filter0_d_1_5926" x="0" y="0" width="120" height="120" filterUnits="userSpaceOnUse" color-interpolation-filters="sRGB">
<feFlood flood-opacity="0" result="BackgroundImageFix"/>
<feColorMatrix in="SourceAlpha" type="matrix" values="0 0 0 0 0 0 0 0 0 0 0 0 0 0 0 0 0 0 127 0" result="hardAlpha"/>
<feOffset dy="6"/>
<feGaussianBlur stdDeviation="12"/>
<feComposite in2="hardAlpha" operator="out"/>
<feColorMatrix type="matrix" values="0 0 0 0 0.996078 0 0 0 0 0.243137 0 0 0 0 0.243137 0 0 0 0.3 0"/>
<feBlend mode="normal" in2="BackgroundImageFix" result="effect1_dropShadow_1_5926"/>
<feBlend mode="normal" in="SourceGraphic" in2="effect1_dropShadow_1_5926" result="shape"/>
</filter>
</defs>
</svg>
