<svg xmlns="http://www.w3.org/2000/svg" width="62" height="48" viewBox="0 0 62 48" fill="none" transform="matrix(1, 0, 0, 1, 0, 0)">
<g clip-path="url(#clip0_1_5331)">
<path d="M54.8797 43.7236C55.742 43.7236 56.2089 44.3642 56.2089 45.1566V46.6603H55.6311V45.25C55.6311 44.7316 55.3754 44.2769 54.8387 44.2769C54.3203 44.2769 54.0585 44.7133 54.0585 45.2386V46.6603H53.4816V45.2378C53.4816 44.7141 53.2198 44.2769 52.6883 44.2769C52.1524 44.2769 51.9133 44.7307 51.9133 45.25V46.6603H51.3373V45.1627C51.3373 44.3642 51.7911 43.7227 52.6481 43.7227C53.2189 43.7227 53.6326 44.0142 53.7783 44.4575C53.9354 44.0142 54.3377 43.7236 54.8797 43.7236ZM49.3073 46.1707C49.8371 46.1707 50.1286 45.7099 50.1286 45.1802V43.8047H50.7055V45.25C50.7055 46.0773 50.2045 46.7301 49.3073 46.7301C48.4215 46.7301 47.9197 46.0712 47.9197 45.2439V43.8047H48.4966V45.1863C48.4966 45.7099 48.7828 46.1707 49.3073 46.1707ZM46.2929 46.724C45.7623 46.724 45.3548 46.5146 45.1322 46.0895L45.5756 45.8452C45.7213 46.1297 45.9543 46.2353 46.2694 46.2353C46.5958 46.2353 46.8463 46.1009 46.8463 45.8504C46.8463 45.25 45.209 45.7047 45.209 44.6146C45.209 44.1137 45.6515 43.7463 46.2755 43.7463C46.8052 43.7463 47.1665 43.9906 47.3472 44.3231L46.9047 44.5745C46.7825 44.3231 46.5495 44.2359 46.2868 44.2359C46.0189 44.2359 45.7859 44.3755 45.7859 44.6024C45.7859 45.1863 47.4231 44.7604 47.4231 45.8382C47.4231 46.3802 46.8995 46.724 46.2929 46.724ZM42.3316 47.9711H41.7539V45.2264C41.7539 44.3755 42.4128 43.7341 43.2751 43.7341C43.4729 43.731 43.6694 43.7674 43.8531 43.8411C44.0368 43.9147 44.204 44.0242 44.345 44.163C44.486 44.3019 44.598 44.4675 44.6744 44.65C44.7508 44.8326 44.7901 45.0285 44.7901 45.2264C44.7901 46.0895 44.167 46.7301 43.2977 46.7301C42.9137 46.7301 42.5647 46.5608 42.3308 46.3051V47.972L42.3316 47.9711ZM43.2751 46.1882C43.8057 46.1882 44.2132 45.7518 44.2132 45.2325C44.2132 44.708 43.8057 44.283 43.2751 44.283C42.7392 44.283 42.3316 44.708 42.3316 45.2325C42.3316 45.7509 42.7392 46.1882 43.2751 46.1882ZM40.4125 43.8047H40.9885V46.6603H40.4125V43.8047ZM48.1946 41.1988C43.7865 41.1988 40.4239 37.8082 40.4239 33.682C40.4239 29.5854 43.7865 26.194 48.1946 26.194C52.6019 26.194 55.9654 29.5854 55.9654 33.682C55.9654 37.8082 52.6028 41.1988 48.1946 41.1988ZM48.1946 36.4232C49.8048 36.4232 50.8791 35.1796 50.8791 33.7108C50.8791 32.2132 49.8057 30.9695 48.1946 30.9695C46.5836 30.9695 45.5101 32.2132 45.5101 33.7099C45.5101 35.1796 46.5836 36.4232 48.1946 36.4232ZM30.8195 47.698C27.3155 47.698 24.7715 46.1445 23.472 43.3745L27.6829 41.1141C28.135 42.0741 28.9833 43.0638 30.7348 43.0638C32.5711 43.0638 33.7868 41.9048 33.9281 39.8705C33.2492 40.4639 32.1757 40.916 30.5655 40.916C26.6374 40.916 23.472 37.8929 23.472 33.6541C23.472 29.5566 26.8355 26.2228 31.2436 26.2228C35.7644 26.2228 39.0144 29.3594 39.0144 33.682V39.277C39.0144 44.3633 35.4816 47.698 30.8195 47.698ZM31.1581 36.1405C32.6845 36.1405 33.8426 35.0949 33.8426 33.5406C33.8426 32.0151 32.6845 30.9975 31.1581 30.9975C29.6605 30.9975 28.4745 32.0151 28.4745 33.5406C28.4745 35.0949 29.6614 36.1405 31.1581 36.1405ZM14.8442 41.1988C10.4361 41.1988 7.07345 37.8082 7.07345 33.682C7.07345 29.5854 10.4361 26.194 14.8442 26.194C19.2515 26.194 22.615 29.5854 22.615 33.682C22.615 37.8082 19.2524 41.1988 14.8442 41.1988ZM14.8442 36.4232C16.4544 36.4232 17.5287 35.1796 17.5287 33.7108C17.5287 32.2132 16.4553 30.9695 14.8442 30.9695C13.2332 30.9695 12.1597 32.2132 12.1597 33.7099C12.1597 35.1796 13.2332 36.4232 14.8442 36.4232ZM0 20.1469H5.08625V40.7746H0V20.1469ZM61.7315 27.9272C61.7315 28.3901 61.5476 28.8341 61.2203 29.1614C60.8929 29.4888 60.449 29.6727 59.986 29.6727C59.5231 29.6727 59.0792 29.4888 58.7518 29.1614C58.4245 28.8341 58.2406 28.3901 58.2406 27.9272C58.2406 27.4643 58.4245 27.0203 58.7518 26.693C59.0792 26.3657 59.5231 26.1818 59.986 26.1818C60.449 26.1818 60.8929 26.3657 61.2203 26.693C61.5476 27.0203 61.7315 27.4643 61.7315 27.9272Z" fill="#ffffff"/>
<path fill-rule="evenodd" clip-rule="evenodd" d="M47.8167 8.43489C52.8317 13.4498 55.8199 20.1388 56.2088 27.2203C54.7271 25.4862 52.7143 24.2897 50.4829 23.8167C49.466 19.1173 47.0359 14.8415 43.5187 11.5632C40.0015 8.28481 35.5656 6.16088 30.8065 5.47645C26.0473 4.79202 21.1927 5.57986 16.8942 7.73422C12.5957 9.88858 9.05916 13.3063 6.75924 17.5287H0.947754C2.79222 13.1911 5.67313 9.37249 9.33764 6.40799C13.0022 3.44349 17.3383 1.42372 21.9655 0.525924C26.5926 -0.371873 31.3695 -0.120252 35.8767 1.25871C40.384 2.63766 44.4839 5.10181 47.8167 8.43489Z" fill="#ffffff"/>
<path fill-rule="evenodd" clip-rule="evenodd" d="M44.1136 12.1379C47.3143 15.3383 49.5254 19.3928 50.4828 23.8167C49.748 23.6596 48.9817 23.5758 48.1945 23.5758C47.1298 23.5758 46.1052 23.7277 45.1426 24.0113C44.0693 20.0414 41.692 16.5478 38.3929 14.0925C35.0939 11.6372 31.0649 10.3629 26.9539 10.4745C22.843 10.5861 18.8891 12.0772 15.7281 14.7079C12.5672 17.3386 10.3829 20.956 9.52659 24.9783C8.87209 25.3549 8.26099 25.8024 7.70434 26.3127V17.5287H6.7583C8.5108 14.3112 10.9895 11.5466 13.9974 9.45467C17.0053 7.36272 20.4596 6.00101 24.0858 5.47769C27.7121 4.95437 31.4105 5.28387 34.8871 6.44002C38.3638 7.59616 41.5229 9.5471 44.1136 12.1379Z" fill="#ffffff"/>
<path d="M40.4128 26.9568C40.0115 24.1333 38.6991 21.5181 36.6753 19.5088C34.6514 17.4995 32.0268 16.2061 29.2005 15.8252C26.3741 15.4443 23.5007 15.9968 21.0172 17.3986C18.5336 18.8005 16.5758 20.975 15.4414 23.5916C18.5483 23.7591 21.2625 25.2262 23.0411 27.4412C24.9367 25.0935 27.8961 23.6047 31.2439 23.6047C34.8308 23.6047 37.9133 25.1773 39.7678 27.7396C39.9694 27.4682 40.185 27.2073 40.4128 26.9568Z" fill="#ffffff"/>
<path fill-rule="evenodd" clip-rule="evenodd" d="M45.142 24.0114C43.3255 24.5419 41.6893 25.5607 40.4118 26.9568C40.0102 24.1337 38.6978 21.5188 36.674 19.5098C34.6502 17.5008 32.0258 16.2076 29.1998 15.8268C26.3737 15.4459 23.5006 15.9982 21.0172 17.3998C18.5338 18.8013 16.576 20.9755 15.4413 23.5916C15.2425 23.581 15.0435 23.5758 14.8444 23.5759C12.8921 23.5759 11.0768 24.0873 9.52686 24.9784C10.3838 20.9566 12.5684 17.34 15.7293 14.7099C18.8902 12.0798 22.8438 10.5891 26.9543 10.4775C31.0648 10.3659 35.0934 11.6398 38.3924 14.0946C41.6913 16.5493 44.0689 20.0421 45.1429 24.0114H45.142Z" fill="#ffffff"/>
</g>
<defs fill="#ffffff">
<clipPath id="clip0_1_5331" fill="#ffffff">
<rect width="61.9636" height="48" fill="#ffffff"/>
</clipPath>
</defs>
</svg>