<svg width="98" height="32" viewBox="0 0 98 32" fill="none" xmlns="http://www.w3.org/2000/svg">
<path d="M3.75076 21.1264C4.09485 21.1264 4.40453 21.2296 4.64539 21.3672C5.23033 21.7113 5.5056 22.3651 5.5056 23.0189C5.5056 23.707 5.23033 24.3608 4.64539 24.7049C4.37012 24.8425 4.06044 24.9457 3.75076 24.9457H2.16797V21.1264H3.75076ZM2.75291 21.6081V24.4984H3.57872C3.92281 24.4984 4.26689 24.3608 4.47335 24.1543C4.71421 23.9135 4.85184 23.5006 4.85184 23.0189C4.85184 22.4683 4.6798 22.0554 4.33571 21.8146C4.09485 21.6425 3.81958 21.5737 3.57872 21.5737H2.75291V21.6081ZM6.57227 23.7414C6.57227 24.292 6.98517 24.5672 7.57012 24.5672C7.91421 24.5672 8.25829 24.464 8.53356 24.3608L8.63679 24.7737C8.32711 24.9113 7.94861 25.0146 7.53571 25.0146C6.53786 25.0146 5.98732 24.464 5.98732 23.5694C5.98732 22.6748 6.53786 22.0898 7.43249 22.0898C8.2927 22.0898 8.77442 22.6404 8.77442 23.4662V23.7759H6.57227V23.7414ZM6.60668 23.3285H8.22388C8.22388 22.8468 8.01743 22.5027 7.46689 22.5027C6.98517 22.5027 6.6755 22.7092 6.60668 23.3285ZM11.0454 22.0898H12.0088V22.4683H11.5615C11.6992 22.5716 11.8368 22.7436 11.8368 23.0533C11.8368 23.5694 11.4239 23.9479 10.5981 23.9479C10.3572 23.9479 10.1508 23.9135 9.94431 23.8447C9.8755 23.9135 9.80668 23.9823 9.80668 24.0855C9.80668 24.3264 10.1164 24.3608 10.5293 24.3608H10.9766C11.5271 24.3608 11.9744 24.5328 11.9744 25.049C11.9744 25.7371 11.2862 25.8748 10.5981 25.8748C9.94431 25.8748 9.25614 25.7371 9.25614 25.1522C9.25614 24.8769 9.39378 24.7049 9.56582 24.6017C9.42818 24.4984 9.32496 24.3608 9.32496 24.1543C9.32496 23.9135 9.42818 23.7414 9.60023 23.6382C9.42818 23.5006 9.32496 23.2597 9.32496 22.9845C9.32496 22.3307 9.80668 22.021 10.5981 22.021C10.7357 22.0554 10.9078 22.0898 11.0454 22.0898ZM9.97872 24.8081C9.8755 24.8769 9.77227 24.9802 9.77227 25.1178C9.77227 25.4275 10.1164 25.4619 10.5637 25.4619C10.9766 25.4619 11.3551 25.4275 11.3551 25.1178C11.3551 24.9113 11.183 24.8425 10.8733 24.8425H10.5293C10.426 24.8425 10.1852 24.8425 9.97872 24.8081ZM11.3207 21.092C11.2518 21.5393 11.011 21.7457 10.5637 21.7457C10.1164 21.7457 9.8755 21.5737 9.80668 21.092L10.1508 21.0576C10.2196 21.2984 10.3228 21.4361 10.5637 21.4361C10.8389 21.4361 10.9078 21.2984 10.9766 21.0576L11.3207 21.092ZM9.9099 23.0189C9.9099 23.3629 10.1852 23.5006 10.5981 23.5006C11.0454 23.5006 11.2862 23.3285 11.2862 23.0189C11.2862 22.6748 11.011 22.5027 10.6325 22.5027C10.1852 22.5027 9.9099 22.6748 9.9099 23.0189ZM12.9379 23.7414C12.9379 24.292 13.3508 24.5672 13.9357 24.5672C14.2798 24.5672 14.6239 24.464 14.8992 24.3608L15.0024 24.7393C14.6927 24.8769 14.3142 24.9802 13.9013 24.9802C12.9035 24.9802 12.3529 24.4296 12.3529 23.535C12.3529 22.6404 12.9035 22.0554 13.7981 22.0554C14.6583 22.0554 15.14 22.606 15.14 23.4318V23.7414H12.9379ZM12.9723 23.3285H14.5895C14.5895 22.8468 14.383 22.5027 13.8325 22.5027C13.3508 22.5027 13.0411 22.7092 12.9723 23.3285ZM17.2389 22.6404C16.654 22.5371 16.3443 23.0189 16.3443 23.6038V24.9113H15.7938V22.0554H16.2755L16.3099 22.6404C16.4131 22.3307 16.7572 21.9522 17.2733 22.0554L17.2389 22.6404ZM18.34 24.3264C18.34 24.4984 18.4432 24.5328 18.5465 24.5328H18.7873V24.9457C18.6841 24.9802 18.5465 24.9802 18.34 24.9802C17.9271 24.9802 17.7551 24.8081 17.7551 24.4296V20.9543H18.3056V24.3264H18.34ZM19.8884 24.9457H19.3379V22.5027H18.9938V22.0898H19.9228V24.9457H19.8884ZM19.9228 21.3672C19.9228 21.5737 19.8196 21.6425 19.6131 21.6425C19.4067 21.6425 19.3035 21.5393 19.3035 21.3672C19.3035 21.1952 19.4067 21.092 19.6131 21.092C19.7852 21.092 19.9228 21.1952 19.9228 21.3672ZM25.497 24.9457H24.9121V23.2941H22.8819V24.9457H22.297V21.1264H22.8819V22.8124H24.9121V21.1264H25.497V24.9457ZM27.0454 24.9457H26.4949V22.5027H26.1508V22.0898H27.0454V24.9457ZM27.0798 21.3672C27.0798 21.5737 26.9766 21.6425 26.7701 21.6425C26.5637 21.6425 26.4604 21.5393 26.4604 21.3672C26.4604 21.1952 26.5637 21.092 26.7701 21.092C26.9422 21.092 27.0798 21.1952 27.0798 21.3672ZM29.8325 22.2619L29.7293 22.6404C29.5916 22.606 29.2475 22.4683 28.869 22.4683C28.4217 22.4683 28.2497 22.6404 28.2497 22.8468C28.2497 23.1565 28.525 23.1909 28.9723 23.2941C29.454 23.4318 29.9357 23.5694 29.9357 24.1543C29.9357 24.7393 29.4196 24.9802 28.8002 24.9802C28.3185 24.9802 27.9056 24.8425 27.6647 24.7393L27.768 24.3608C27.9056 24.4296 28.2841 24.5672 28.7314 24.5672C29.1787 24.5672 29.3508 24.3952 29.3508 24.1888C29.3508 23.8791 29.0067 23.8447 28.5938 23.7414C28.1465 23.6038 27.6647 23.4662 27.6647 22.8812C27.6647 22.2963 28.1465 22.0554 28.7658 22.0554C29.2131 22.0554 29.5916 22.1586 29.8325 22.2619ZM32.5164 22.2619L32.4131 22.6404C32.2755 22.606 31.9314 22.4683 31.5529 22.4683C31.1056 22.4683 30.9336 22.6404 30.9336 22.8468C30.9336 23.1565 31.2088 23.1909 31.6561 23.2941C32.1379 23.4318 32.6196 23.5694 32.6196 24.1543C32.6196 24.7393 32.1035 24.9802 31.4841 24.9802C31.0024 24.9802 30.5895 24.8425 30.3486 24.7393L30.4518 24.3608C30.5895 24.4296 30.968 24.5672 31.4153 24.5672C31.8626 24.5672 32.0346 24.3952 32.0346 24.1888C32.0346 23.8791 31.6906 23.8447 31.2777 23.7414C30.8303 23.6038 30.3486 23.4662 30.3486 22.8812C30.3486 22.2963 30.8303 22.0554 31.4497 22.0554C31.8626 22.0554 32.2411 22.1586 32.5164 22.2619ZM33.6174 23.7414C33.6174 24.292 34.0303 24.5672 34.6153 24.5672C34.9594 24.5672 35.3035 24.464 35.5787 24.3608L35.6819 24.7737C35.3723 24.9113 34.9938 25.0146 34.5809 25.0146C33.583 25.0146 33.0325 24.464 33.0325 23.5694C33.0325 22.6748 33.583 22.0898 34.4776 22.0898C35.3379 22.0898 35.8196 22.6404 35.8196 23.4662V23.7759H33.6174V23.7414ZM33.6174 23.3285H35.2346C35.2346 22.8468 35.0282 22.5027 34.4776 22.5027C34.0303 22.5027 33.6863 22.7092 33.6174 23.3285ZM37.0927 22.0898H37.8841V22.5027H37.0927V24.0855C37.0927 24.4296 37.1959 24.5672 37.4712 24.5672C37.6088 24.5672 37.7809 24.5328 37.8841 24.4984L37.9185 24.8769C37.7465 24.9457 37.54 24.9802 37.3336 24.9802C36.8174 24.9802 36.5422 24.7737 36.5422 24.1199V22.5027H36.1293V22.0898H36.5422L36.611 21.264H37.0927V22.0898ZM39.0884 22.0898H39.8798V22.5027H39.0884V24.0855C39.0884 24.4296 39.1916 24.5672 39.4669 24.5672C39.6045 24.5672 39.7766 24.5328 39.8798 24.4984L39.9142 24.8769C39.7422 24.9457 39.5357 24.9802 39.3293 24.9802C38.8131 24.9802 38.5379 24.7737 38.5379 24.1199V22.5027H38.125V22.0898H38.5379L38.6067 21.264H39.0884V22.0898ZM41.0497 24.9457H40.4992V22.5027H40.1551V22.0898H41.0841V24.9457H41.0497ZM41.0841 21.3672C41.0841 21.5737 40.9809 21.6425 40.7744 21.6425C40.568 21.6425 40.4647 21.5393 40.4647 21.3672C40.4647 21.1952 40.568 21.092 40.7744 21.092C40.9809 21.092 41.0841 21.1952 41.0841 21.3672ZM43.3551 22.6404C42.7701 22.5371 42.4604 23.0189 42.4604 23.6038V24.9113H41.9099V22.0554H42.3916L42.426 22.6404C42.5293 22.3307 42.8733 21.9522 43.3895 22.0554L43.3551 22.6404ZM44.5594 24.9457H44.0088V22.5027H43.6647V22.0898H44.5938V24.9457H44.5594ZM44.5594 21.3672C44.5594 21.5737 44.4561 21.6425 44.2497 21.6425C44.0432 21.6425 43.94 21.5393 43.94 21.3672C43.94 21.1952 44.0432 21.092 44.2497 21.092C44.4561 21.092 44.5594 21.1952 44.5594 21.3672ZM46.8647 22.6404C46.2798 22.5371 45.9701 23.0189 45.9701 23.6038V24.9113H45.4196V22.0554H45.9013L45.9357 22.6404C46.0389 22.3307 46.383 21.9522 46.8992 22.0554L46.8647 22.6404Z" fill="#002855"/>
<path d="M82.7872 6.36507L79.1055 4.23174L82.7872 2.13281V6.36507ZM82.7872 6.36507L79.1055 8.4984L80.9635 9.56507L82.8216 8.4984V6.36507H82.7872Z" fill="#CEDC00"/>
<path d="M82.7873 6.36502L79.1055 8.49836L75.4238 6.36502L79.1055 4.23169L82.7873 6.36502Z" fill="#0082CA"/>
<path d="M97.5482 2.13333L93.832 0V4.26667L97.5482 2.13333Z" fill="#E63323"/>
<path d="M82.7873 19.1651V12.7651L86.469 14.8984V6.36507L82.7873 8.4984V2.13281L97.5486 10.6317L82.7873 19.1651ZM75.4239 2.13281V6.39948L79.1056 4.26615L75.4239 2.13281ZM75.4239 10.6317L79.1056 8.4984L75.4239 6.36507V10.6317ZM73.7722 27.5952L66.0991 23.1565V31.9995L73.7722 27.5952Z" fill="#05BEC8"/>
<path d="M38.2968 15.4154C38.2968 14.6929 37.8839 14.0391 37.0237 14.0391C36.129 14.0391 35.5097 14.4864 35.3376 15.4154H38.2968ZM36.9204 12.6972C38.7785 12.6972 39.8796 13.9359 39.8796 15.8283C39.8796 16.1724 39.8452 16.4821 39.8452 16.4821H35.372C35.4409 17.4799 36.3355 17.9273 37.1957 17.9273C37.7806 17.9273 38.5376 17.7552 39.0194 17.5144L39.5699 18.7187C38.8817 19.0972 37.9183 19.2692 37.1613 19.2692C34.9936 19.2692 33.6172 17.9273 33.6172 16.0004C33.6516 14.0735 34.9935 12.6972 36.9204 12.6972ZM42.7699 10.3574V17.4111C42.7699 17.7552 42.9763 17.9273 43.3548 17.9273C43.4237 17.9273 43.6301 17.8929 43.7333 17.8929V19.1316C43.3893 19.2004 42.9763 19.2692 42.5979 19.2692C41.8409 19.2692 41.1183 18.9939 41.1183 17.5488V11.2864L42.7699 10.3574ZM49.1355 15.4154C49.1355 14.6929 48.7226 14.0391 47.8624 14.0391C46.9677 14.0391 46.3484 14.4864 46.1764 15.4154H49.1355ZM47.7591 12.6972C49.6172 12.6972 50.7183 13.9359 50.7183 15.8283C50.7183 16.1724 50.6839 16.4821 50.6839 16.4821H46.2108C46.2796 17.4799 47.1742 17.9273 48.0344 17.9273C48.6194 17.9273 49.3764 17.7552 49.8581 17.5144L50.4086 18.7187C49.7204 19.0972 48.757 19.2692 48 19.2692C45.8323 19.2692 44.4559 17.9273 44.4559 16.0004C44.4559 14.0735 45.7979 12.6972 47.7591 12.6972ZM20.4043 10.3574V15.6219L22.5032 12.8348H24.4645L21.9871 15.7939L24.3957 19.166H22.572L21.0581 16.9638L20.4387 17.652V19.166H18.7871V11.2864L20.4043 10.3574ZM53.5398 10.3574V15.6219L55.6387 12.8348H57.6L55.0882 15.7939L57.4968 19.166H55.6731L54.1591 16.9638L53.5398 17.652V19.166H51.8882V11.2864L53.5398 10.3574ZM67.3376 12.8348L67.6129 13.6606C67.8882 13.1101 68.6452 12.6972 69.3678 12.6972C70.1247 12.6972 70.8129 13.1445 71.1226 13.8326C71.4323 13.2133 72.1204 12.6972 73.1527 12.6972C74.4602 12.6972 75.4237 13.4885 75.4237 15.3466V19.166H73.772V15.2434C73.772 14.5896 73.5312 14.0391 72.7398 14.0391C71.914 14.0391 71.5699 14.6929 71.5699 15.5187V19.166H69.9183V15.1402C69.9183 14.5896 69.643 14.0047 68.9204 14.0047C68.0946 14.0047 67.7505 14.6584 67.7505 15.4498V19.0972H66.0989V12.8348H67.3376ZM61.3505 12.3875C59.3548 12.3875 57.7721 14.0047 57.7721 15.966C57.7721 17.9617 59.3893 19.5445 61.3505 19.5445C63.3462 19.5445 64.929 17.9273 64.929 15.966C64.929 14.0047 63.3118 12.3875 61.3505 12.3875ZM61.3505 18.0305C60.2151 18.0305 59.3204 17.1015 59.3204 16.0004C59.3204 14.8649 60.2495 13.9703 61.3505 13.9703C62.486 13.9703 63.3807 14.8993 63.3807 16.0004C63.3807 17.1015 62.4516 18.0305 61.3505 18.0305ZM34.3742 10.6326V12.0434H32.2409V19.1316H30.5204V12.0778H28.3871V10.6326H34.3742ZM15.4151 12.8348V13.7638C15.7935 12.9724 16.4129 12.766 17.514 12.766V14.3832H17.3075C16.2409 14.3832 15.4839 14.9337 15.4839 16.2756V19.166H13.8323V12.8348H15.4151ZM5.9871 10.6326V12.0434H3.85376V19.1316H2.13333V12.0778H0V10.6326H5.9871ZM10.7355 19.166L10.4946 18.409C10.4258 18.5122 10.0129 19.2692 8.8086 19.2692C7.74194 19.2692 6.50323 18.6842 6.50323 16.8606V13.6606H8.15484V16.895C8.15484 17.7208 8.60215 18.0649 9.1871 18.0649C9.94409 18.0649 10.3914 17.4799 10.3914 16.6541V13.6606H12.0086V19.166H10.7355ZM7.08817 11.3896H8.73979V12.6627H7.08817V11.3896ZM9.77204 11.3896H11.4237V12.6627H9.77204V11.3896ZM69.9183 10.6326V6.36597L73.6 8.4993L69.9183 10.6326ZM55.6731 24.9466V21.3337L58.8043 23.1574L55.6731 24.9466Z" fill="#002855"/>
<path d="M86.4688 6.36597L82.7871 8.4993V12.766L86.4688 14.8993V6.36597Z" fill="#0082CA"/>
<path d="M79.1055 10.6321L82.7872 12.7654V8.49878L79.1055 10.6321Z" fill="#002855"/>
</svg>
