<svg width="123" height="24" viewBox="0 0 123 24" fill="none" xmlns="http://www.w3.org/2000/svg">
<path d="M12.0213 0C5.3806 0 0 5.37393 0 12.0013C0 12.16 0.00533393 12.32 0.0133348 12.4787C1.17346 10.2158 3.46705 7.61418 6.73008 6.042C6.72475 5.97 6.71675 5.89532 6.71675 5.81931C6.71675 4.29248 7.95688 3.05634 9.48639 3.05634C9.95713 3.05589 10.4202 3.17572 10.8316 3.40445C11.243 3.63319 11.5892 3.96326 11.8373 4.36334C12.0853 4.76341 12.2271 5.22024 12.249 5.69046C12.271 6.16069 12.1724 6.62873 11.9627 7.05018C11.753 7.47163 11.4391 7.83251 11.0507 8.09858C10.6624 8.36466 10.2125 8.52711 9.74381 8.57051C9.27508 8.61392 8.80303 8.53685 8.37244 8.34661C7.94185 8.15637 7.56701 7.85927 7.28348 7.4835C3.89777 9.48105 2.1429 13.5735 1.89888 18.4687C2.53594 19.4606 3.31599 20.353 4.2138 21.117C6.17935 16.4498 9.46105 13.1161 15.8098 11.0399C15.8098 11.0026 15.8044 10.9679 15.8044 10.9305C15.8044 9.40504 17.0432 8.16891 18.5701 8.16891C20.0996 8.16891 21.3384 9.40638 21.3384 10.9292C21.3387 11.5125 21.1546 12.081 20.8122 12.5533C20.4699 13.0256 19.9869 13.3775 19.4324 13.5586C18.8779 13.7397 18.2804 13.7408 17.7252 13.5617C17.1701 13.3826 16.6859 13.0324 16.3418 12.5614C11.4373 14.815 8.31159 19.8662 8.17157 23.3666C9.41247 23.7869 10.7139 24.0008 12.024 24C18.6647 24 24.0453 18.6301 24.0453 11.9987C24.044 5.37393 18.6634 0 12.0213 0Z" fill="#FFC200"/>
<path d="M39.3736 7.22022H35.5319V19.3376H32.6622V7.22022H28.8218V4.66394H39.3736V7.22022ZM51.659 14.3077C51.659 15.8358 51.1429 17.0773 50.1121 18.0414C49.0774 18.9882 47.7919 19.4616 46.2504 19.4616C44.7089 19.4616 43.4234 18.9869 42.3886 18.0401C41.3565 17.0773 40.8418 15.8358 40.8418 14.3077V4.66394H43.7101V14.205C43.7101 15.0451 43.9368 15.7038 44.3902 16.1839C44.8436 16.6639 45.465 16.904 46.2504 16.904C47.0331 16.904 47.6545 16.6639 48.1079 16.1839C48.576 15.7012 48.8093 15.0451 48.8093 14.205V4.66394H51.6576V14.3077M64.8618 19.3376H61.5401L58.6691 13.4876H56.6049V19.3376H53.7365V4.66394H59.4959C60.9547 4.66394 62.1228 5.10399 63.0029 5.98409C63.8457 6.82285 64.2657 7.8803 64.2657 9.15777C64.2657 10.1339 63.9977 10.97 63.4603 11.6727C62.9789 12.2901 62.3522 12.7355 61.5801 13.0115L64.8618 19.3376ZM61.3961 9.15644C61.3961 8.58038 61.2027 8.11366 60.8187 7.75628C60.432 7.40024 59.9306 7.22289 59.3118 7.22289H56.6049V11.0967H59.3118C59.9319 11.0967 60.432 10.918 60.8187 10.5606C61.2014 10.2006 61.3961 9.73384 61.3961 9.15644ZM78.3046 19.3376H74.9589L71.1811 12.6608L69.2809 14.9277V19.3376H66.41V4.66394H69.2809V11.054L74.4615 4.66661H77.9526L73.0814 10.4993L78.3046 19.3376ZM100.871 19.3376H91.19V4.66394H100.871V7.22022H94.0597V10.6606H99.8603V13.2169H94.0597V16.784H100.871V19.3376ZM111.608 19.3376H102.707V4.66394H105.574V16.7826H111.608V19.3376ZM122.089 19.3376H112.894V4.66394H115.761V16.7826H122.091L122.089 19.3376ZM89.5245 14.8531C89.2738 16.3639 88.6418 17.5307 87.6256 18.3481C86.6655 19.1429 85.4787 19.5376 84.0612 19.5376C82.4771 19.5376 81.1409 18.9975 80.0555 17.9134C79.943 17.7992 79.8358 17.6799 79.7341 17.556C78.958 16.7266 78.398 15.6505 78.0819 14.4184C77.9006 13.6032 77.8094 12.7705 77.8099 11.9354C77.8099 10.994 77.9059 10.0219 78.1433 9.21778C78.7887 7.08421 80.0061 5.29201 82.4437 4.67861C82.9708 4.535 83.515 4.46411 84.0612 4.46792C85.4934 4.46792 86.6949 4.86796 87.667 5.67339C88.6538 6.47881 89.2738 7.6376 89.5245 9.14844H86.5842C86.2375 7.74828 85.4041 7.0482 84.0826 7.0482C83.2065 7.0482 82.4904 7.2629 81.9223 7.83496C81.1729 8.59238 80.6582 9.76851 80.6582 11.8914C80.6582 13.2809 80.8502 14.3717 81.1063 14.9344C81.3303 15.4478 81.609 15.8385 81.901 16.1599C82.6398 16.8506 83.3012 16.9533 84.0826 16.9533C85.3987 16.9533 86.2362 16.2532 86.5842 14.8531H89.5245Z" fill="#137AC9"/>
</svg>
