<svg width="98" height="24" viewBox="0 0 98 24" fill="none" xmlns="http://www.w3.org/2000/svg">
<path d="M24 12C24 15.1826 22.7357 18.2348 20.4853 20.4853C18.2348 22.7357 15.1826 24 12 24C8.8174 24 5.76515 22.7357 3.51472 20.4853C1.26428 18.2348 0 15.1826 0 12C0 8.8174 1.26428 5.76515 3.51472 3.51472C5.76515 1.26428 8.8174 0 12 0C15.1826 0 18.2348 1.26428 20.4853 3.51472C22.7357 5.76515 24 8.8174 24 12Z" fill="#EE3023"/>
<path d="M12.0986 18.6882C8.80103 18.6998 5.36997 15.8899 5.35255 11.3674C5.34675 8.37758 6.96068 5.50385 9.01583 3.79703C11.0303 2.13084 13.7822 1.06843 16.2785 1.05682C16.5698 1.04586 16.8612 1.07715 17.1436 1.14971C16.0475 1.39128 15.065 1.9955 14.355 2.86465C13.6449 3.73381 13.2488 4.81707 13.2306 5.93926C13.2306 6.02054 13.2306 6.10182 13.2422 6.13665C16.8997 7.02489 18.5543 9.23099 18.5659 12.2847C18.5636 13.1303 18.3943 13.9672 18.0677 14.7473C17.7411 15.5273 17.2636 16.2352 16.6627 16.8302C16.0618 17.4252 15.3492 17.8956 14.566 18.2145C13.7827 18.5333 12.9442 18.6943 12.0986 18.6882Z" fill="white"/>
<path d="M31.7502 16.9688L28.0869 8.20827H30.4846L32.7778 14.0254L34.9955 8.20827H37.2828L33.7183 16.9688H31.7502ZM43.6631 12.545C43.6658 12.1926 43.6228 11.8414 43.5354 11.5C43.4615 11.1979 43.3315 10.9123 43.1522 10.6582C42.9907 10.4278 42.7806 10.2356 42.5368 10.0951C42.2768 9.94828 41.982 9.87409 41.6834 9.88026C41.3848 9.8738 41.09 9.94801 40.83 10.0951C40.5837 10.2343 40.3715 10.4267 40.2088 10.6582C40.0309 10.9145 39.9029 11.2021 39.8315 11.5058C39.7445 11.8453 39.7016 12.1946 39.7038 12.545C39.7008 12.8974 39.7438 13.2487 39.8315 13.59C39.9046 13.8912 40.0282 14.1778 40.1972 14.4376C40.3578 14.6825 40.5778 14.8828 40.8366 15.0198C41.0955 15.1569 41.3848 15.2262 41.6776 15.2213C41.9704 15.2302 42.2603 15.1626 42.5189 15.0252C42.7775 14.8877 42.9958 14.6852 43.1522 14.4376C43.329 14.182 43.4588 13.8969 43.5354 13.5958C43.6236 13.2526 43.6665 12.8993 43.6631 12.545ZM45.875 12.5508C45.8751 13.1221 45.787 13.69 45.6138 14.2344C45.4449 14.7715 45.1793 15.2732 44.83 15.7148C44.4555 16.1859 43.9758 16.5626 43.4293 16.8146C42.8828 17.0667 42.2849 17.1871 41.6834 17.1662C41.0814 17.1857 40.483 17.0647 39.9358 16.8128C39.3886 16.5609 38.9077 16.1849 38.531 15.7148C38.1825 15.2727 37.917 14.7711 37.7473 14.2344C37.4023 13.1445 37.4023 11.9746 37.7473 10.8846C37.9172 10.3532 38.1828 9.85742 38.531 9.42163C38.8854 8.98555 39.3314 8.63276 39.8373 8.38824C40.4136 8.11499 41.0457 7.97983 41.6834 7.99347C42.2811 7.97695 42.8746 8.097 43.4189 8.34449C43.9632 8.59197 44.4438 8.96036 44.8242 9.42163C45.1725 9.85123 45.4396 10.3389 45.6138 10.8846C45.7879 11.4303 45.875 11.9877 45.875 12.5508ZM52.6442 10.1415C52.2596 9.97947 51.8481 9.89087 51.4309 9.88026C51.1047 9.86447 50.7798 9.93057 50.4857 10.0725C50.1917 10.2145 49.9378 10.4278 49.7473 10.693C49.5639 10.9479 49.4264 11.2327 49.3409 11.5348C49.2508 11.8461 49.2059 12.1687 49.2074 12.4927C49.2054 12.8444 49.2443 13.1951 49.3235 13.5377C49.3933 13.8472 49.5171 14.142 49.6892 14.4086C49.846 14.6538 50.0564 14.8603 50.3046 15.0123C50.5485 15.1633 50.8445 15.2446 51.1754 15.2446C51.4746 15.2379 51.7676 15.1582 52.0289 15.0123C52.2792 14.8943 52.4922 14.7095 52.6442 14.4782V10.1415ZM52.8242 16.9688L52.7371 16.2954C52.5058 16.5466 52.2303 16.7533 51.9244 16.9049C51.4806 17.0948 51.0001 17.1828 50.5179 17.1628C50.0357 17.1427 49.5641 17.0149 49.1377 16.7888C48.6806 16.5373 48.2842 16.1885 47.9766 15.7671C47.6517 15.3238 47.408 14.8265 47.2567 14.2983C47.0936 13.7321 47.0116 13.1458 47.0129 12.5566C47.0129 11.9819 47.0942 11.4245 47.2625 10.8788C47.4263 10.349 47.6882 9.85466 48.0347 9.42163C48.4089 8.95767 48.8859 8.58712 49.4279 8.33926C49.97 8.09139 50.5623 7.97301 51.158 7.99347C51.6225 7.99347 52.1159 8.08055 52.6442 8.24891V4.85269H54.8968V16.9688H52.8242ZM61.2364 12.8585C60.7398 12.8918 60.2455 12.9538 59.756 13.0443C59.2683 13.143 58.9316 13.3055 58.74 13.5435C58.5607 13.761 58.4622 14.0338 58.4614 14.3157C58.4614 14.606 58.5659 14.8382 58.7807 15.0123C59.0407 15.2028 59.3587 15.2971 59.6805 15.2794C59.9708 15.2794 60.2611 15.2213 60.5339 15.0994C60.792 14.9868 61.0295 14.8318 61.2364 14.6408V12.8585ZM61.4164 16.9572L61.3293 16.307C61.0718 16.5858 60.7541 16.8022 60.4004 16.9398C59.6565 17.2342 58.8306 17.2466 58.0782 16.9746C57.538 16.7945 57.0698 16.4457 56.7427 15.9796C56.4156 15.5135 56.2468 14.9546 56.2611 14.3853C56.2536 14.0019 56.3352 13.622 56.4994 13.2755C56.6636 12.929 56.9059 12.6253 57.2074 12.3882C57.512 12.1512 57.8506 11.9614 58.2117 11.8251C58.9032 11.5799 59.6231 11.4238 60.354 11.3607L61.2248 11.2794V11.1517C61.2248 10.6698 61.0971 10.3273 60.8474 10.1183C60.55 9.89721 60.184 9.78824 59.8141 9.8106C59.1561 9.81388 58.5152 10.0207 57.9795 10.4028C57.8624 10.4771 57.75 10.5586 57.6428 10.6466L56.8939 9.06749C57.2531 8.79494 57.6476 8.5723 58.0666 8.40566C59.1579 7.95205 60.369 7.87443 61.5093 8.18505C61.9013 8.3076 62.26 8.51836 62.5579 8.80116C62.8558 9.08395 63.0849 9.43126 63.2277 9.8164C63.4022 10.302 63.4849 10.8158 63.4715 11.3316V16.963L61.4164 16.9572ZM70.4323 6.84978C70.0311 6.67013 69.5946 6.58284 69.1551 6.59434C68.8474 6.59434 68.5804 6.68723 68.3714 6.87881C68.1566 7.06459 68.0521 7.37228 68.0521 7.79608V8.20827H69.9447V10.0254H68.0695V16.9688H65.817V10.0254H64.6558V8.20827H65.817V7.74383C65.817 7.16909 65.8924 6.68723 66.0376 6.29245C66.156 5.93883 66.3559 5.618 66.6211 5.35581C66.8863 5.09362 67.2095 4.89742 67.5644 4.78302C68.5988 4.50677 69.6949 4.574 70.6878 4.9746L70.4323 6.84978ZM76.5746 12.545C76.5761 12.1927 76.5332 11.8416 76.4468 11.5C76.3729 11.1979 76.243 10.9123 76.0637 10.6582C75.9021 10.4278 75.6921 10.2356 75.4483 10.0951C75.1882 9.94828 74.8935 9.87409 74.5949 9.88026C74.2963 9.8738 74.0014 9.94801 73.7415 10.0951C73.4958 10.2352 73.2838 10.4274 73.1203 10.6582C72.9421 10.9151 72.8123 11.2023 72.7371 11.5058C72.5604 12.1913 72.5604 12.9103 72.7371 13.5958C72.8137 13.895 72.9392 14.1794 73.1087 14.4376C73.2674 14.6771 73.4802 14.8759 73.7299 15.0181C73.9953 15.1613 74.2933 15.2333 74.5949 15.2271C74.8872 15.2344 75.1764 15.1654 75.4339 15.027C75.6915 14.8885 75.9085 14.6854 76.0637 14.4376C76.2405 14.182 76.3702 13.8969 76.4468 13.5958C76.534 13.2524 76.5769 12.8993 76.5746 12.545ZM78.7865 12.5508C78.7876 13.1222 78.6994 13.6902 78.5252 14.2344C78.3573 14.7719 78.0916 15.2738 77.7415 15.7148C77.367 16.1859 76.8872 16.5626 76.3407 16.8146C75.7943 17.0667 75.1963 17.1871 74.5949 17.1662C73.9928 17.1857 73.3945 17.0647 72.8473 16.8128C72.3001 16.5609 71.8191 16.1849 71.4425 15.7148C71.094 15.2727 70.8285 14.7711 70.6588 14.2344C70.3091 13.1452 70.3091 11.9738 70.6588 10.8846C70.8269 10.3537 71.0905 9.85787 71.4367 9.42163C71.7927 8.98488 72.2407 8.63204 72.7487 8.38824C73.3251 8.11499 73.9572 7.97983 74.5949 7.99347C75.1926 7.97695 75.7861 8.097 76.3304 8.34449C76.8746 8.59197 77.3553 8.96036 77.7357 9.42163C78.084 9.85123 78.3511 10.3389 78.5252 10.8846C78.6994 11.4303 78.7865 11.9877 78.7865 12.5508ZM85.7821 16.9688V11.9761C85.8168 11.4275 85.6699 10.8827 85.3641 10.426C85.2285 10.2486 85.0522 10.1065 84.8501 10.0115C84.6481 9.91656 84.4261 9.87154 84.203 9.88026C83.8585 9.8763 83.5201 9.97098 83.2277 10.1531C82.9471 10.3227 82.6878 10.5254 82.4556 10.7569V16.9688H80.203V8.20827H82.2582L82.3627 8.90494C83.0714 8.3141 83.9654 7.99144 84.8881 7.99347C85.3525 7.99347 85.7763 8.06314 86.1653 8.20247C86.5448 8.33959 86.8855 8.56669 87.158 8.8643C87.4425 9.16618 87.6573 9.56096 87.8082 10.0428C87.9592 10.5305 88.0347 11.111 88.0347 11.7845V16.9688H85.7821ZM95.0419 11.5348C95.0253 11.2624 94.9604 10.995 94.8503 10.7453C94.7605 10.5395 94.6302 10.3539 94.4672 10.1996C94.1859 9.93921 93.817 9.79414 93.4338 9.79318C93.0222 9.80059 92.6268 9.95504 92.3191 10.2286C92.1338 10.3939 91.9833 10.5947 91.8766 10.819C91.7699 11.0433 91.7092 11.2867 91.6979 11.5348H95.0419ZM91.6457 13.1546C91.6921 13.8919 91.9244 14.426 92.3424 14.7511C92.8025 15.0932 93.3659 15.2674 93.9389 15.2446C94.4747 15.2439 95.0059 15.1455 95.5064 14.9543C95.6901 14.8815 95.8685 14.7962 96.0405 14.6988C96.1576 14.6322 96.2666 14.5523 96.3656 14.4608L96.9693 16.2954C96.6277 16.5265 96.2542 16.7064 95.8605 16.8295C95.1418 17.0499 94.3945 17.1633 93.6428 17.1662C93.0894 17.1681 92.5397 17.0759 92.0172 16.8933C91.5096 16.7162 91.0476 16.4287 90.6646 16.0515C90.259 15.6452 89.9426 15.1588 89.7357 14.6234C89.49 13.9748 89.3717 13.2848 89.3873 12.5914C89.3873 11.8483 89.4976 11.1981 89.7066 10.6292C89.9665 9.84921 90.4689 9.17274 91.1405 8.69856C91.8121 8.22438 92.6176 7.97732 93.4396 7.99347C93.9687 7.98819 94.4942 8.0807 94.9897 8.26633C95.4599 8.4463 95.8663 8.73077 96.2088 9.10813C96.5572 9.49129 96.83 9.98476 97.0274 10.5943C97.2306 11.1981 97.3293 11.918 97.3293 12.754V13.1546H91.6457Z" fill="#EE3023"/>
</svg>
