<svg width="16" height="16" viewBox="0 0 16 16" fill="none" xmlns="http://www.w3.org/2000/svg">
<path d="M7.16797 6.50004V6.00004C7.16797 5.5398 7.54107 5.16671 8.0013 5.16671C8.46154 5.16671 8.83464 5.5398 8.83464 6.00004V6.50004H7.16797Z" fill="#626C85"/>
<path fill-rule="evenodd" clip-rule="evenodd" d="M4.79618 1.87524C5.69109 1.38676 6.70491 0.833374 7.99986 0.833374C9.30095 0.833374 10.3161 1.38798 11.2117 1.87725L11.242 1.8938C12.1697 2.40054 12.9749 2.83178 13.9905 2.83178H14.3867L14.4772 3.21713C15.857 9.08593 13.1001 14.0731 8.10474 15.1442L7.99983 15.1667L7.89492 15.1442C2.89956 14.0731 0.142749 9.08592 1.52247 3.21713L1.61306 2.83178H2.00922C3.02636 2.83178 3.83404 2.40029 4.76234 1.89371L4.79618 1.87524ZM6.16797 6.00004C6.16797 4.98752 6.98878 4.16671 8.0013 4.16671C9.01382 4.16671 9.83464 4.98752 9.83464 6.00004V6.50004H10.8346V11.1667H5.16797V6.50004H6.16797V6.00004Z" fill="#626C85"/>
</svg>
