<svg width="392" height="392" viewBox="0 0 392 392" fill="none" xmlns="http://www.w3.org/2000/svg">
<rect x="392" y="392" width="392" height="392" rx="16" transform="rotate(180 392 392)" fill="white"/>
<rect x="392" y="392" width="392" height="392" rx="16" transform="rotate(180 392 392)" fill="url(#paint0_radial_1_5480)"/>
<rect x="392" y="392" width="392" height="392" rx="16" transform="rotate(180 392 392)" fill="url(#paint1_radial_1_5480)"/>
<rect x="392" y="392" width="392" height="392" rx="16" transform="rotate(180 392 392)" fill="url(#paint2_radial_1_5480)"/>
<rect x="392" y="392" width="392" height="392" rx="16" transform="rotate(180 392 392)" fill="url(#paint3_radial_1_5480)"/>
<mask id="mask0_1_5480" style="mask-type:alpha" maskUnits="userSpaceOnUse" x="0" y="0" width="392" height="392">
<rect x="392" y="392" width="392" height="392" rx="16" transform="rotate(180 392 392)" fill="#D9D9D9"/>
</mask>
<g mask="url(#mask0_1_5480)">
<mask id="mask1_1_5480" style="mask-type:alpha" maskUnits="userSpaceOnUse" x="-80" y="-137" width="541" height="598">
<rect x="-80" y="-137" width="540.415" height="598" fill="#05051D"/>
<rect x="-80" y="-137" width="540.415" height="598" fill="url(#paint4_linear_1_5480)"/>
</mask>
<g mask="url(#mask1_1_5480)">
<g opacity="0.5">
<mask id="mask2_1_5480" style="mask-type:luminance" maskUnits="userSpaceOnUse" x="-201" y="-145" width="798" height="441">
<path d="M596.333 -145H-201V295.748H596.333V-145Z" fill="white"/>
</mask>
<g mask="url(#mask2_1_5480)">
<g style="mix-blend-mode:overlay">
<mask id="mask3_1_5480" style="mask-type:alpha" maskUnits="userSpaceOnUse" x="-201" y="-145" width="798" height="441">
<path d="M596.333 -145H-201V295.748H596.333V-145Z" fill="url(#paint5_radial_1_5480)" fill-opacity="0.7"/>
</mask>
<g mask="url(#mask3_1_5480)">
<path d="M-57.6009 303.948C-57.6009 303.948 -64.3749 63.6152 251.867 63.6152C568.111 63.6152 621.233 -16.9449 621.233 -16.9449" stroke="white"/>
<path d="M-52.6121 319.452C-52.6121 319.452 -59.3856 79.119 256.857 79.119C573.1 79.119 626.222 -1.44104 626.222 -1.44104" stroke="white"/>
<path d="M-47.6233 335.509C-47.6233 335.509 -54.3973 95.1766 261.846 95.1766C578.089 95.1766 631.211 14.6166 631.211 14.6166" stroke="white"/>
<path d="M621.233 297.56V-33.108C621.233 -33.108 568.111 47.4525 251.867 47.4525C-64.3752 47.4525 -79.1519 287.785 -79.1519 287.785V297.56H621.233Z" fill="white" fill-opacity="0.25"/>
<path d="M620.779 -32.0312C620.84 -32.1132 620.901 -32.1899 620.957 -32.2614V297.283H-78.8745V287.794V287.792L-78.8723 287.76C-78.8706 287.731 -78.8679 287.688 -78.8634 287.631C-78.8551 287.517 -78.8424 287.345 -78.8236 287.119C-78.7865 286.666 -78.7256 285.993 -78.6331 285.115C-78.4482 283.359 -78.1353 280.782 -77.6254 277.501C-76.6054 270.939 -74.7948 261.562 -71.6348 250.308C-65.3149 227.8 -53.5974 197.79 -32.0079 167.78C11.1605 107.776 93.8285 47.7297 251.868 47.7297C410.01 47.7297 502.386 27.5871 555.243 7.43117C581.666 -2.64679 598.216 -12.7293 608.16 -20.2998C613.133 -24.085 616.455 -27.2421 618.537 -29.4565C619.578 -30.5636 620.303 -31.4349 620.779 -32.0312Z" stroke="white" stroke-opacity="0.11"/>
<path d="M-100.702 271.622C-100.702 271.622 -64.3741 31.2892 251.868 31.2892C568.111 31.2892 621.233 -49.2711 621.233 -49.2711V281.397" stroke="white"/>
<path d="M-122.253 255.459C-122.253 255.459 -64.3747 15.1264 251.868 15.1264C568.111 15.1264 621.233 -65.4337 621.233 -65.4337V265.234" stroke="white"/>
<path d="M-143.804 239.296C-143.804 239.296 -64.3753 -1.03668 251.867 -1.03668C568.111 -1.03668 621.233 -81.5968 621.233 -81.5968V249.071" stroke="white"/>
<path d="M621.234 232.908V-97.7599C621.234 -97.7599 568.111 -17.1996 251.868 -17.1996C-64.3745 -17.1996 -165.354 223.133 -165.354 223.133V232.908H621.234Z" fill="white" fill-opacity="0.24"/>
<path d="M620.78 -96.6836C620.841 -96.7655 620.901 -96.8423 620.957 -96.9137V232.631H-165.077V223.189C-165.065 223.161 -165.048 223.121 -165.025 223.068C-164.976 222.953 -164.901 222.782 -164.801 222.555C-164.601 222.102 -164.299 221.429 -163.892 220.55C-163.076 218.793 -161.839 216.215 -160.151 212.933C-156.776 206.368 -151.6 196.988 -144.401 185.73C-130.003 163.215 -107.513 133.192 -75.1457 103.169C-10.415 43.1281 93.8247 -16.9228 251.868 -16.9228C410.011 -16.9228 502.387 -37.0653 555.243 -57.2212C581.666 -67.2994 598.216 -77.3816 608.161 -84.9521C613.133 -88.7374 616.455 -91.8945 618.537 -94.1088C619.578 -95.2159 620.303 -96.0873 620.78 -96.6836Z" stroke="white" stroke-opacity="0.44"/>
<path d="M-186.904 206.97C-186.904 206.97 -64.3741 -33.3627 251.868 -33.3627C568.111 -33.3627 621.233 -113.923 621.233 -113.923V216.745" stroke="white"/>
<path d="M-208.456 190.807C-208.456 190.807 -64.3747 -49.5259 251.868 -49.5259C568.111 -49.5259 621.233 -130.086 621.233 -130.086V200.582" stroke="white"/>
<path d="M621.233 184.419V-146.249C621.233 -146.249 568.111 -65.6883 251.868 -65.6883C-64.3752 -65.6883 -230.007 174.644 -230.007 174.644V298.234H621.233V184.419Z" fill="white" fill-opacity="0.04"/>
<path d="M620.774 -145.173C620.84 -145.255 620.901 -145.331 620.957 -145.403V184.419V297.956H-229.73V174.731C-229.711 174.704 -229.687 174.67 -229.659 174.628C-229.578 174.514 -229.458 174.342 -229.296 174.115C-228.974 173.661 -228.49 172.988 -227.846 172.108C-226.557 170.35 -224.625 167.771 -222.054 164.488C-216.911 157.921 -209.21 148.538 -198.981 137.278C-178.521 114.757 -147.948 84.729 -107.496 54.7C-26.5921 -5.35744 93.8202 -65.4118 251.868 -65.4118C410.01 -65.4118 502.386 -85.5543 555.238 -105.71C581.666 -115.788 598.216 -125.871 608.16 -133.441C613.133 -137.226 616.455 -140.384 618.537 -142.598C619.572 -143.705 620.303 -144.576 620.774 -145.173Z" stroke="white" stroke-opacity="0.48"/>
<path d="M-251.557 158.48C-251.557 158.48 -64.3743 -81.8519 251.869 -81.8519C568.111 -81.8519 621.234 -162.412 621.234 -162.412V168.256" stroke="white"/>
<path d="M-273.107 142.318C-273.107 142.318 -64.3739 -98.0147 251.869 -98.0147C568.111 -98.0147 621.234 -178.575 621.234 -178.575V152.093" stroke="white"/>
<path d="M-294.658 126.155C-294.658 126.155 -64.375 -114.178 251.868 -114.178C568.111 -114.178 621.233 -194.738 621.233 -194.738" stroke="white"/>
</g>
</g>
</g>
</g>
<g opacity="0.5">
<mask id="mask4_1_5480" style="mask-type:luminance" maskUnits="userSpaceOnUse" x="-131" y="75" width="798" height="441">
<path d="M-131 515.748H666.333V75.0001H-131V515.748Z" fill="white"/>
</mask>
<g mask="url(#mask4_1_5480)">
<g style="mix-blend-mode:overlay">
<mask id="mask5_1_5480" style="mask-type:alpha" maskUnits="userSpaceOnUse" x="-131" y="75" width="798" height="441">
<path d="M-131 515.748H666.333V75.0001H-131V515.748Z" fill="url(#paint6_radial_1_5480)" fill-opacity="0.7"/>
</mask>
<g mask="url(#mask5_1_5480)">
<path d="M522.934 66.8008C522.934 66.8008 529.708 307.134 213.466 307.134C-102.777 307.134 -155.9 387.694 -155.9 387.694" stroke="white"/>
<path d="M517.946 51.2971C517.946 51.2971 524.719 291.63 208.477 291.63C-107.767 291.63 -160.889 372.19 -160.889 372.19" stroke="white"/>
<path d="M512.957 35.2395C512.957 35.2395 519.731 275.572 203.488 275.572C-112.755 275.572 -165.878 356.132 -165.878 356.132" stroke="white"/>
<path d="M-155.9 73.1885V403.856C-155.9 403.856 -102.778 323.296 213.466 323.296C529.708 323.296 544.485 82.9636 544.485 82.9636V73.1885H-155.9Z" fill="white" fill-opacity="0.25"/>
<path d="M-155.446 402.78C-155.507 402.862 -155.568 402.939 -155.623 403.01V73.4655H544.208V82.9549V82.9571L544.206 82.9892C544.204 83.0174 544.201 83.0606 544.197 83.1182C544.189 83.2323 544.176 83.4039 544.157 83.6304C544.12 84.0827 544.059 84.7555 543.967 85.6337C543.782 87.3895 543.469 89.967 542.959 93.2482C541.939 99.8101 540.128 109.187 536.968 120.441C530.648 142.949 518.931 172.959 497.341 202.968C454.173 262.973 371.505 323.019 213.466 323.019C55.323 323.019 -37.053 343.162 -89.9096 363.318C-116.332 373.396 -132.882 383.478 -142.827 391.049C-147.799 394.834 -151.121 397.991 -153.203 400.205C-154.244 401.312 -154.97 402.184 -155.446 402.78Z" stroke="white" stroke-opacity="0.11"/>
<path d="M566.035 99.1269C566.035 99.1269 529.708 339.459 213.465 339.459C-102.778 339.459 -155.9 420.02 -155.9 420.02V89.3518" stroke="white"/>
<path d="M587.586 115.29C587.586 115.29 529.708 355.622 213.466 355.622C-102.778 355.622 -155.9 436.183 -155.9 436.183V105.514" stroke="white"/>
<path d="M609.138 131.453C609.138 131.453 529.709 371.786 213.466 371.786C-102.778 371.786 -155.9 452.346 -155.9 452.346V121.678" stroke="white"/>
<path d="M-155.9 137.841V468.508C-155.9 468.508 -102.778 387.948 213.466 387.948C529.708 387.948 630.688 147.616 630.688 147.616V137.841H-155.9Z" fill="white" fill-opacity="0.24"/>
<path d="M-155.446 467.432C-155.507 467.514 -155.568 467.591 -155.623 467.662V138.117H630.411V147.559C630.399 147.587 630.381 147.628 630.359 147.68C630.309 147.795 630.235 147.967 630.135 148.193C629.935 148.646 629.633 149.319 629.225 150.198C628.41 151.955 627.172 154.533 625.485 157.815C622.109 164.38 616.934 173.76 609.735 185.018C595.337 207.534 572.846 237.556 540.479 267.579C475.748 327.62 371.509 387.671 213.466 387.671C55.3229 387.671 -37.0532 407.814 -89.9098 427.97C-116.333 438.048 -132.883 448.13 -142.827 455.7C-147.799 459.486 -151.122 462.643 -153.204 464.857C-154.245 465.964 -154.97 466.836 -155.446 467.432Z" stroke="white" stroke-opacity="0.44"/>
<path d="M652.238 163.779C652.238 163.779 529.708 404.111 213.465 404.111C-102.778 404.111 -155.9 484.671 -155.9 484.671V154.004" stroke="white"/>
<path d="M673.789 179.942C673.789 179.942 529.708 420.274 213.465 420.274C-102.778 420.274 -155.9 500.834 -155.9 500.834V170.166" stroke="white"/>
<path d="M-155.9 186.329V516.997C-155.9 516.997 -102.778 436.437 213.466 436.437C529.709 436.437 695.34 196.105 695.34 196.105V72.5152H-155.9V186.329Z" fill="white" fill-opacity="0.04"/>
<path d="M-155.44 515.921C-155.507 516.003 -155.568 516.079 -155.623 516.151V186.329V72.792H695.063V196.018C695.045 196.044 695.021 196.078 694.992 196.12C694.912 196.235 694.791 196.407 694.63 196.633C694.308 197.087 693.824 197.761 693.18 198.64C691.891 200.398 689.959 202.977 687.387 206.261C682.245 212.827 674.544 222.21 664.314 233.47C643.855 255.991 613.281 286.019 572.829 316.048C491.926 376.106 371.513 436.16 213.466 436.16C55.3236 436.16 -37.053 456.303 -89.904 476.458C-116.332 486.537 -132.882 496.619 -142.827 504.19C-147.799 507.975 -151.121 511.132 -153.203 513.346C-154.239 514.453 -154.97 515.325 -155.44 515.921Z" stroke="white" stroke-opacity="0.48"/>
<path d="M716.89 212.268C716.89 212.268 529.708 452.601 213.465 452.601C-102.778 452.601 -155.9 533.161 -155.9 533.161V202.493" stroke="white"/>
<path d="M738.44 228.431C738.44 228.431 529.707 468.763 213.465 468.763C-102.778 468.763 -155.9 549.324 -155.9 549.324V218.656" stroke="white"/>
<path d="M759.992 244.594C759.992 244.594 529.709 484.926 213.466 484.926C-102.777 484.926 -155.9 565.487 -155.9 565.487" stroke="white"/>
</g>
</g>
</g>
</g>
</g>
</g>
<defs>
<radialGradient id="paint0_radial_1_5480" cx="0" cy="0" r="1" gradientUnits="userSpaceOnUse" gradientTransform="translate(424.667 489.305) rotate(-118.516) scale(438.213)">
<stop stop-color="#00C2FF"/>
<stop offset="1" stop-color="#00C2FF" stop-opacity="0"/>
</radialGradient>
<radialGradient id="paint1_radial_1_5480" cx="0" cy="0" r="1" gradientUnits="userSpaceOnUse" gradientTransform="translate(450.8 809.836) rotate(-57.0787) scale(313.095)">
<stop stop-color="#0AB5FF"/>
<stop offset="1" stop-color="#0A6CFF" stop-opacity="0"/>
</radialGradient>
<radialGradient id="paint2_radial_1_5480" cx="0" cy="0" r="1" gradientUnits="userSpaceOnUse" gradientTransform="translate(784 784) rotate(-123.445) scale(289.349)">
<stop stop-color="#0085FF"/>
<stop offset="1" stop-color="#0085FF" stop-opacity="0"/>
</radialGradient>
<radialGradient id="paint3_radial_1_5480" cx="0" cy="0" r="1" gradientUnits="userSpaceOnUse" gradientTransform="translate(712.618 425.287) rotate(-58.1726) scale(325.096)">
<stop stop-color="#545BFF"/>
<stop offset="1" stop-color="#545BFF" stop-opacity="0"/>
</radialGradient>
<linearGradient id="paint4_linear_1_5480" x1="-80" y1="-137" x2="471.013" y2="-114.875" gradientUnits="userSpaceOnUse">
<stop stop-color="#252394"/>
<stop offset="1" stop-color="#6663FD"/>
</linearGradient>
<radialGradient id="paint5_radial_1_5480" cx="0" cy="0" r="1" gradientUnits="userSpaceOnUse" gradientTransform="translate(219.815 11.6983) rotate(90) scale(232.002 371.535)">
<stop stop-color="#D9D9D9"/>
<stop offset="1" stop-color="#D9D9D9" stop-opacity="0"/>
</radialGradient>
<radialGradient id="paint6_radial_1_5480" cx="0" cy="0" r="1" gradientUnits="userSpaceOnUse" gradientTransform="translate(245.519 359.05) rotate(-90) scale(232.002 371.535)">
<stop stop-color="#D9D9D9"/>
<stop offset="1" stop-color="#D9D9D9" stop-opacity="0"/>
</radialGradient>
</defs>
</svg>
