<svg width="100" height="20" viewBox="0 0 100 20" fill="none" xmlns="http://www.w3.org/2000/svg">
<path d="M4.99219 0L9.76731 7.89329L14.7949 0H4.99219Z" fill="#18C2DA"/>
<path d="M4.99363 0L9.76875 7.89329L4.80388 15.7358L0.146795 8.50438C-0.0489315 8.20107 -0.0489315 7.80962 0.146795 7.50632L4.99363 0Z" fill="#18C2DA"/>
<path d="M14.7972 0L19.6126 7.39427C19.8113 7.69906 19.8113 8.09051 19.6141 8.39531L14.8793 15.7373L9.76953 7.89479L14.7972 0Z" fill="#1C64FE"/>
<path d="M9.76956 7.89307L4.80469 15.7356L7.01296 19.1645C7.34763 19.6845 7.92435 19.9997 8.54291 19.9997H11.1367C11.7552 19.9997 12.3319 19.6859 12.6666 19.166L14.8794 15.7356L9.76956 7.89307Z" fill="#0245CA"/>
<path d="M38.4412 3.08533L32.5022 16.9161H30.2476L24.3086 3.08533H26.5632L31.3742 14.2985L36.1851 3.08533H38.4412Z" fill="#1C64FE"/>
<path d="M63.085 15.0233V16.9163H53.7036V3.08545H55.7565V15.0233H63.085Z" fill="#1C64FE"/>
<path d="M74.4205 15.0239V16.9169H65.0391V3.08606H67.0919V15.0239H74.4205Z" fill="#1C64FE"/>
<path d="M78.6091 4.97709V8.92299H85.9376V10.816H78.6091V15.0234H86.722V16.9164H76.5547V3.08557H86.7205V4.97859H78.6091V4.97709Z" fill="#1C64FE"/>
<path d="M93.1238 4.97725H88.5938V3.08423H99.7068V4.97725H95.1573V16.9151H93.1238V4.97725Z" fill="#1C64FE"/>
<path d="M45.9124 3.08606H43.6578L37.7188 16.9154H39.9733L41.1821 14.0975H41.1836L41.9694 12.2658H41.9665L44.7858 5.70222L47.6037 12.2658H47.6007L48.3881 14.0975H48.3896L49.5968 16.9154H51.8514L45.9124 3.08606Z" fill="#1C64FE"/>
</svg>
